<svg id="svg" version="1.1" xmlns="http://www.w3.org/2000/svg" xmlns:xlink="http://www.w3.org/1999/xlink" width="400" height="400" viewBox="0, 0, 400,400"><g id="svgg"><path id="path0" d="M358.800 24.200 C 359.546 24.970,360.247 25.600,360.357 25.600 C 360.467 25.600,359.946 24.970,359.200 24.200 C 358.454 23.430,357.753 22.800,357.643 22.800 C 357.533 22.800,358.054 23.430,358.800 24.200 M216.909 35.200 C 216.909 36.190,216.987 36.595,217.082 36.100 C 217.178 35.605,217.178 34.795,217.082 34.300 C 216.987 33.805,216.909 34.210,216.909 35.200 M230.493 42.800 C 230.493 43.570,230.575 43.885,230.676 43.500 C 230.776 43.115,230.776 42.485,230.676 42.100 C 230.575 41.715,230.493 42.030,230.493 42.800 M216.495 58.037 L 216.400 73.074 213.700 73.502 L 211.000 73.930 213.600 73.724 C 215.030 73.611,216.337 73.391,216.505 73.235 C 216.673 73.078,216.760 66.211,216.700 57.975 L 216.590 43.000 216.495 58.037 M56.800 44.000 C 56.800 44.220,57.205 44.397,57.700 44.394 C 58.428 44.389,58.485 44.314,58.000 44.000 C 57.224 43.499,56.800 43.499,56.800 44.000 M358.800 57.800 C 357.828 58.790,357.123 59.600,357.233 59.600 C 357.343 59.600,358.228 58.790,359.200 57.800 C 360.172 56.810,360.877 56.000,360.767 56.000 C 360.657 56.000,359.772 56.810,358.800 57.800 M55.600 58.650 C 53.890 58.964,52.661 59.704,50.948 61.453 C 47.870 64.595,48.000 62.917,48.000 99.471 L 48.000 132.000 150.700 132.002 C 223.721 132.004,253.862 132.131,255.000 132.442 C 261.339 134.173,262.488 142.355,256.839 145.530 L 255.291 146.400 151.827 146.400 L 48.364 146.400 48.640 147.872 C 51.035 160.640,61.945 168.532,78.400 169.401 C 83.100 169.650,90.756 170.083,103.200 170.807 C 107.050 171.031,113.350 171.397,117.200 171.621 C 121.050 171.845,127.215 172.202,130.900 172.414 C 134.585 172.626,140.705 172.984,144.500 173.208 C 148.295 173.433,154.550 173.795,158.400 174.012 C 162.250 174.230,168.280 174.581,171.800 174.793 C 175.320 175.004,181.530 175.367,185.600 175.600 C 189.670 175.833,195.880 176.192,199.400 176.399 C 202.920 176.605,209.040 176.962,213.000 177.193 C 216.960 177.423,223.170 177.783,226.800 177.994 C 252.553 179.491,259.684 179.899,268.200 180.361 C 274.960 180.728,278.224 181.016,280.269 181.426 C 281.625 181.697,283.641 183.606,284.448 185.383 C 285.154 186.938,285.183 190.784,285.191 284.900 L 285.200 382.800 330.643 382.800 L 376.086 382.800 378.620 381.591 C 391.348 375.516,386.305 356.400,371.974 356.400 C 368.150 356.400,364.898 351.736,365.994 347.823 C 366.977 344.310,370.764 342.000,375.539 342.000 C 376.191 342.000,377.506 341.595,378.462 341.100 C 390.724 334.750,387.270 317.580,373.419 316.027 C 362.929 314.850,363.068 303.042,373.589 301.601 C 390.337 299.308,389.623 275.200,372.807 275.200 C 370.837 275.200,368.082 273.796,367.094 272.287 C 363.681 267.078,367.495 260.832,374.106 260.806 C 375.798 260.799,378.800 259.966,378.800 259.503 C 378.800 259.336,379.066 259.200,379.392 259.200 C 379.717 259.200,380.861 258.313,381.934 257.228 C 389.798 249.281,385.597 236.567,374.535 234.834 C 369.628 234.066,369.539 234.033,367.965 232.460 C 362.770 227.264,367.029 220.000,375.271 220.000 C 378.266 220.000,382.922 216.474,384.666 212.886 C 388.745 204.493,382.431 194.000,373.301 194.000 C 368.555 194.000,364.833 189.533,365.992 185.228 C 366.908 181.827,369.955 179.600,373.692 179.600 C 386.271 179.600,390.497 160.363,379.113 154.920 C 376.002 153.433,375.183 153.200,373.059 153.200 C 370.371 153.200,367.692 151.612,366.571 149.354 C 365.830 147.861,365.792 146.297,365.600 109.296 L 365.400 70.793 363.316 72.196 C 362.169 72.968,361.044 73.600,360.816 73.600 C 360.587 73.600,360.400 73.736,360.400 73.902 C 360.400 74.069,359.815 74.447,359.100 74.743 C 358.385 75.039,357.080 75.591,356.200 75.969 C 354.677 76.623,353.618 76.951,349.665 77.995 C 342.089 79.996,329.661 77.592,322.308 72.705 C 318.667 70.284,318.800 70.236,318.800 73.977 C 318.800 81.366,317.340 82.066,300.000 82.998 C 279.019 84.124,278.180 83.831,277.704 75.201 C 277.452 70.631,277.342 70.440,275.752 71.808 C 275.118 72.353,274.390 72.799,274.133 72.800 C 273.877 72.800,273.607 72.945,273.533 73.121 C 273.460 73.298,272.140 74.039,270.600 74.768 C 269.060 75.496,267.487 76.252,267.105 76.446 C 266.723 76.641,266.136 76.800,265.800 76.800 C 265.464 76.800,264.877 76.961,264.495 77.157 C 261.065 78.922,247.335 78.922,243.905 77.157 C 243.523 76.961,242.936 76.800,242.600 76.800 C 242.264 76.800,241.677 76.636,241.295 76.435 C 240.913 76.234,239.610 75.600,238.400 75.026 C 235.288 73.549,232.748 72.058,231.700 71.091 L 230.800 70.261 230.800 76.069 C 230.800 85.934,229.609 87.020,218.100 87.646 C 214.525 87.841,208.585 88.179,204.900 88.399 C 201.215 88.618,195.050 88.975,191.200 89.191 C 187.350 89.407,181.140 89.771,177.400 90.000 C 173.660 90.229,167.360 90.598,163.400 90.821 C 159.440 91.043,153.230 91.397,149.600 91.607 C 145.970 91.818,139.760 92.176,135.800 92.404 C 126.240 92.955,116.758 93.509,111.600 93.819 C 106.937 94.099,105.333 93.696,103.395 91.759 C 101.529 89.893,101.426 89.208,101.208 77.200 C 101.006 66.123,100.972 65.746,100.029 63.900 C 95.155 54.361,81.600 58.184,81.600 69.097 C 81.600 70.731,79.739 73.377,77.899 74.359 C 73.216 76.859,68.127 73.777,67.399 68.000 C 66.568 61.414,61.674 57.535,55.600 58.650 M33.392 105.000 C 33.392 125.680,33.441 134.081,33.500 123.670 C 33.559 113.258,33.559 96.338,33.500 86.070 C 33.440 75.801,33.392 84.320,33.392 105.000 M115.780 74.694 C 115.799 79.089,115.851 79.396,116.600 79.472 C 117.199 79.533,117.227 79.503,116.712 79.350 C 116.125 79.176,116.006 78.481,115.893 74.572 L 115.760 69.999 115.780 74.694 M198.600 74.409 C 197.910 74.590,198.844 74.631,200.800 74.506 C 202.670 74.387,204.275 74.225,204.367 74.145 C 204.681 73.871,199.800 74.095,198.600 74.409 M185.000 75.202 C 184.319 75.376,185.185 75.418,187.000 75.298 C 188.760 75.183,190.275 75.023,190.367 74.944 C 190.675 74.677,186.212 74.891,185.000 75.202 M171.200 76.013 C 170.367 76.196,171.095 76.234,173.000 76.106 C 174.760 75.989,176.275 75.826,176.367 75.746 C 176.661 75.488,172.648 75.695,171.200 76.013 M157.400 76.806 C 156.697 76.988,157.442 77.028,159.200 76.903 C 160.850 76.785,162.275 76.624,162.367 76.544 C 162.675 76.278,158.613 76.491,157.400 76.806 M143.600 77.613 C 142.767 77.796,143.495 77.834,145.400 77.706 C 147.160 77.589,148.675 77.426,148.767 77.346 C 149.061 77.088,145.048 77.295,143.600 77.613 M129.800 78.422 C 128.789 78.616,129.378 78.651,131.400 78.516 C 133.160 78.399,134.675 78.235,134.767 78.151 C 135.044 77.900,131.511 78.092,129.800 78.422 M118.505 79.087 C 119.114 79.179,120.014 79.177,120.505 79.082 C 120.997 78.987,120.500 78.911,119.400 78.914 C 118.300 78.917,117.897 78.995,118.505 79.087 M34.101 148.600 C 34.105 149.480,34.187 149.793,34.283 149.295 C 34.379 148.798,34.375 148.078,34.275 147.695 C 34.175 147.313,34.096 147.720,34.101 148.600 M45.800 171.200 C 47.106 172.520,48.265 173.600,48.375 173.600 C 48.485 173.600,47.506 172.520,46.200 171.200 C 44.894 169.880,43.735 168.800,43.625 168.800 C 43.515 168.800,44.494 169.880,45.800 171.200 M69.105 183.083 C 69.602 183.179,70.322 183.175,70.705 183.075 C 71.087 182.975,70.680 182.896,69.800 182.901 C 68.920 182.905,68.607 182.987,69.105 183.083 M72.900 183.476 C 73.285 183.576,73.915 183.576,74.300 183.476 C 74.685 183.375,74.370 183.293,73.600 183.293 C 72.830 183.293,72.515 183.375,72.900 183.476 M78.912 183.895 C 79.964 183.977,81.584 183.976,82.512 183.892 C 83.440 183.808,82.580 183.741,80.600 183.742 C 78.620 183.743,77.860 183.812,78.912 183.895 M85.900 184.282 C 86.395 184.378,87.205 184.378,87.700 184.282 C 88.195 184.187,87.790 184.109,86.800 184.109 C 85.810 184.109,85.405 184.187,85.900 184.282 M93.300 184.691 C 94.125 184.778,95.475 184.778,96.300 184.691 C 97.125 184.605,96.450 184.534,94.800 184.534 C 93.150 184.534,92.475 184.605,93.300 184.691 M99.500 185.082 C 99.995 185.178,100.805 185.178,101.300 185.082 C 101.795 184.987,101.390 184.909,100.400 184.909 C 99.410 184.909,99.005 184.987,99.500 185.082 M107.491 185.489 C 108.201 185.577,109.461 185.579,110.291 185.492 C 111.121 185.405,110.540 185.333,109.000 185.331 C 107.460 185.329,106.781 185.400,107.491 185.489 M113.305 185.887 C 113.914 185.979,114.814 185.977,115.305 185.882 C 115.797 185.787,115.300 185.711,114.200 185.714 C 113.100 185.717,112.697 185.795,113.305 185.887 M122.700 186.289 C 123.415 186.378,124.585 186.378,125.300 186.289 C 126.015 186.201,125.430 186.128,124.000 186.128 C 122.570 186.128,121.985 186.201,122.700 186.289 M127.505 186.683 C 128.002 186.779,128.722 186.775,129.105 186.675 C 129.487 186.575,129.080 186.496,128.200 186.501 C 127.320 186.505,127.007 186.587,127.505 186.683 M137.105 187.083 C 137.602 187.179,138.322 187.175,138.705 187.075 C 139.087 186.975,138.680 186.896,137.800 186.901 C 136.920 186.905,136.607 186.987,137.105 187.083 M140.505 187.487 C 141.114 187.579,142.014 187.577,142.505 187.482 C 142.997 187.387,142.500 187.311,141.400 187.314 C 140.300 187.317,139.897 187.395,140.505 187.487 M151.300 187.876 C 151.685 187.976,152.315 187.976,152.700 187.876 C 153.085 187.775,152.770 187.693,152.000 187.693 C 151.230 187.693,150.915 187.775,151.300 187.876 M154.505 188.287 C 155.114 188.379,156.014 188.377,156.505 188.282 C 156.997 188.187,156.500 188.111,155.400 188.114 C 154.300 188.117,153.897 188.195,154.505 188.287 M164.900 188.676 C 165.285 188.776,165.915 188.776,166.300 188.676 C 166.685 188.575,166.370 188.493,165.600 188.493 C 164.830 188.493,164.515 188.575,164.900 188.676 M168.105 189.087 C 168.714 189.179,169.614 189.177,170.105 189.082 C 170.597 188.987,170.100 188.911,169.000 188.914 C 167.900 188.917,167.497 188.995,168.105 189.087 M179.800 189.610 C 181.390 189.952,185.085 190.133,184.767 189.854 C 184.675 189.774,183.160 189.608,181.400 189.487 C 179.102 189.329,178.651 189.363,179.800 189.610 M193.400 190.398 C 194.612 190.709,199.075 190.923,198.767 190.656 C 198.675 190.577,197.160 190.417,195.400 190.302 C 193.585 190.182,192.719 190.224,193.400 190.398 M221.000 192.014 C 222.584 192.350,226.688 192.535,226.367 192.255 C 226.275 192.175,224.670 192.012,222.800 191.892 C 220.427 191.740,219.883 191.777,221.000 192.014 M234.600 192.818 C 236.180 193.150,240.690 193.335,240.367 193.056 C 240.275 192.976,238.580 192.815,236.600 192.697 C 234.152 192.551,233.512 192.590,234.600 192.818 M248.200 193.622 C 249.778 193.949,254.690 194.136,254.367 193.856 C 254.275 193.776,252.490 193.617,250.400 193.500 C 247.877 193.360,247.138 193.401,248.200 193.622 M260.900 194.276 C 261.285 194.376,261.915 194.376,262.300 194.276 C 262.685 194.175,262.370 194.093,261.600 194.093 C 260.830 194.093,260.515 194.175,260.900 194.276 M264.291 194.689 C 265.001 194.777,266.261 194.779,267.091 194.692 C 267.921 194.605,267.340 194.533,265.800 194.531 C 264.260 194.529,263.581 194.600,264.291 194.689 M212.454 200.667 C 212.425 201.144,212.296 201.864,212.170 202.267 C 211.952 202.961,211.964 202.962,212.396 202.288 C 212.647 201.897,212.775 201.177,212.681 200.688 C 212.509 199.801,212.509 199.801,212.454 200.667 M197.050 205.250 C 196.717 206.917,197.040 207.240,197.400 205.600 C 197.552 204.909,197.593 204.259,197.491 204.158 C 197.389 204.056,197.191 204.547,197.050 205.250 M211.646 204.867 C 211.621 205.234,211.496 205.864,211.370 206.267 C 211.152 206.962,211.163 206.963,211.597 206.287 C 211.848 205.896,211.973 205.266,211.873 204.887 C 211.711 204.268,211.688 204.266,211.646 204.867 M210.846 209.267 C 210.821 209.634,210.696 210.264,210.570 210.667 C 210.352 211.362,210.363 211.363,210.797 210.687 C 211.048 210.296,211.173 209.666,211.073 209.287 C 210.911 208.668,210.888 208.666,210.846 209.267 M210.046 213.267 C 210.021 213.634,209.896 214.264,209.770 214.667 C 209.552 215.362,209.563 215.363,209.997 214.687 C 210.248 214.296,210.373 213.666,210.273 213.287 C 210.111 212.668,210.088 212.666,210.046 213.267 M191.467 234.667 C 191.320 234.813,191.211 235.308,191.225 235.767 C 191.249 236.533,191.282 236.523,191.634 235.642 C 192.026 234.663,191.944 234.189,191.467 234.667 M190.649 239.015 C 190.512 239.373,190.415 239.966,190.434 240.333 C 190.453 240.700,190.627 240.469,190.821 239.820 C 191.198 238.558,191.065 237.933,190.649 239.015 M189.049 247.415 C 188.912 247.773,188.815 248.366,188.834 248.733 C 188.853 249.100,189.027 248.869,189.221 248.220 C 189.598 246.958,189.465 246.333,189.049 247.415 M203.429 247.829 C 203.281 248.415,203.238 248.972,203.332 249.066 C 203.427 249.160,203.624 248.758,203.771 248.171 C 203.919 247.585,203.962 247.028,203.868 246.934 C 203.773 246.840,203.576 247.242,203.429 247.829 M188.249 251.415 C 188.112 251.773,188.018 252.456,188.041 252.933 C 188.067 253.481,188.203 253.286,188.410 252.403 C 188.760 250.916,188.665 250.333,188.249 251.415 M187.449 255.815 C 187.312 256.173,187.218 256.856,187.241 257.333 C 187.267 257.881,187.403 257.686,187.610 256.803 C 187.960 255.316,187.865 254.733,187.449 255.815 M201.800 256.400 C 201.648 257.091,201.607 257.741,201.709 257.842 C 201.811 257.944,202.009 257.453,202.150 256.750 C 202.483 255.083,202.160 254.760,201.800 256.400 M183.293 278.400 C 183.293 279.170,183.375 279.485,183.476 279.100 C 183.576 278.715,183.576 278.085,183.476 277.700 C 183.375 277.315,183.293 277.630,183.293 278.400 M196.854 283.067 C 196.825 283.544,196.696 284.264,196.570 284.667 C 196.352 285.361,196.364 285.362,196.796 284.688 C 197.047 284.297,197.175 283.577,197.081 283.088 C 196.909 282.201,196.909 282.201,196.854 283.067 M180.650 292.050 C 180.317 293.717,180.640 294.040,181.000 292.400 C 181.152 291.709,181.193 291.059,181.091 290.958 C 180.989 290.856,180.791 291.347,180.650 292.050 M195.254 291.467 C 195.225 291.944,195.096 292.664,194.970 293.067 C 194.752 293.761,194.764 293.762,195.196 293.088 C 195.447 292.697,195.575 291.977,195.481 291.488 C 195.309 290.601,195.309 290.601,195.254 291.467 M179.029 300.629 C 178.881 301.215,178.838 301.772,178.932 301.866 C 179.027 301.960,179.224 301.558,179.371 300.971 C 179.519 300.385,179.562 299.828,179.468 299.734 C 179.373 299.640,179.176 300.042,179.029 300.629 M193.646 300.067 C 193.621 300.434,193.496 301.064,193.370 301.467 C 193.152 302.162,193.163 302.163,193.597 301.487 C 193.848 301.096,193.973 300.466,193.873 300.087 C 193.711 299.468,193.688 299.466,193.646 300.067 M192.046 308.467 C 192.021 308.834,191.896 309.464,191.770 309.867 C 191.552 310.562,191.563 310.563,191.997 309.887 C 192.248 309.496,192.373 308.866,192.273 308.487 C 192.111 307.868,192.088 307.866,192.046 308.467 M187.829 330.229 C 187.681 330.815,187.638 331.372,187.732 331.466 C 187.827 331.560,188.024 331.158,188.171 330.571 C 188.319 329.985,188.362 329.428,188.268 329.334 C 188.173 329.240,187.976 329.642,187.829 330.229 M187.029 334.629 C 186.881 335.215,186.838 335.772,186.932 335.866 C 187.027 335.960,187.224 335.558,187.371 334.971 C 187.519 334.385,187.562 333.828,187.468 333.734 C 187.373 333.640,187.176 334.042,187.029 334.629 M186.200 338.800 C 186.048 339.491,186.007 340.141,186.109 340.242 C 186.211 340.344,186.409 339.853,186.550 339.150 C 186.883 337.483,186.560 337.160,186.200 338.800 M178.854 378.267 C 178.825 378.744,178.696 379.464,178.570 379.867 C 178.352 380.561,178.364 380.562,178.796 379.888 C 179.047 379.497,179.175 378.777,179.081 378.288 C 178.909 377.401,178.909 377.401,178.854 378.267 M178.103 382.400 C 178.247 382.929,183.759 383.000,224.633 383.003 L 271.000 383.005 224.823 382.901 C 188.516 382.819,178.570 382.690,178.292 382.298 C 178.032 381.931,177.982 381.958,178.103 382.400 " stroke="none" fill="#acbc5c" fill-rule="evenodd"></path><path id="path1" d="M142.113 10.041 C 141.941 10.209,140.090 10.437,138.000 10.547 C 135.910 10.657,132.940 10.934,131.400 11.162 C 129.860 11.390,127.790 11.682,126.800 11.811 C 125.810 11.940,124.640 12.209,124.200 12.410 C 123.760 12.610,122.589 12.832,121.597 12.903 C 120.605 12.975,119.599 13.153,119.362 13.300 C 119.125 13.446,118.283 13.610,117.491 13.663 C 116.700 13.716,116.141 13.904,116.249 14.080 C 116.414 14.346,114.138 14.611,113.100 14.447 C 112.935 14.421,112.800 14.580,112.800 14.800 C 112.800 15.020,112.451 15.200,112.024 15.200 C 111.597 15.200,111.136 15.380,111.000 15.600 C 110.864 15.820,110.144 16.000,109.400 16.000 C 108.656 16.000,107.936 16.180,107.800 16.400 C 107.664 16.620,107.023 16.800,106.376 16.800 C 105.729 16.800,105.200 16.980,105.200 17.200 C 105.200 17.420,104.660 17.600,104.000 17.600 C 103.340 17.600,102.800 17.780,102.800 18.000 C 102.800 18.220,102.361 18.400,101.824 18.400 C 101.287 18.400,100.736 18.580,100.600 18.800 C 100.464 19.020,100.009 19.200,99.589 19.200 C 99.168 19.200,98.183 19.560,97.400 20.000 C 96.617 20.440,95.521 20.800,94.964 20.800 C 94.392 20.800,94.060 20.974,94.200 21.200 C 94.341 21.428,93.996 21.600,93.400 21.600 C 92.804 21.600,92.459 21.772,92.600 22.000 C 92.736 22.220,92.482 22.400,92.036 22.400 C 91.589 22.400,90.583 22.760,89.800 23.200 C 89.017 23.640,88.111 24.000,87.788 24.000 C 87.465 24.000,87.200 24.180,87.200 24.400 C 87.200 24.620,86.840 24.800,86.400 24.800 C 85.960 24.800,85.600 25.010,85.600 25.267 C 85.600 25.523,85.479 25.613,85.332 25.465 C 85.184 25.318,84.644 25.472,84.132 25.808 C 83.619 26.144,83.200 26.296,83.200 26.147 C 83.200 25.998,82.885 26.160,82.500 26.507 C 82.115 26.854,81.305 27.261,80.700 27.412 C 80.095 27.563,79.600 27.830,79.600 28.004 C 79.600 28.179,79.105 28.530,78.500 28.784 C 76.622 29.575,75.600 30.177,75.600 30.495 C 75.600 30.663,75.240 30.800,74.800 30.800 C 74.360 30.800,74.000 30.958,74.000 31.151 C 74.000 31.345,73.460 31.727,72.800 32.000 C 72.140 32.273,71.600 32.655,71.600 32.849 C 71.600 33.042,71.280 33.200,70.888 33.200 C 70.497 33.200,69.917 33.560,69.600 34.000 C 69.283 34.440,68.793 34.800,68.512 34.800 C 68.230 34.800,68.000 34.936,68.000 35.102 C 68.000 35.269,67.415 35.660,66.700 35.972 C 65.985 36.284,65.119 36.857,64.775 37.245 C 64.431 37.633,63.913 38.006,63.623 38.075 C 63.334 38.144,62.693 38.560,62.198 39.000 C 59.924 41.025,58.903 41.854,57.829 42.551 L 56.671 43.303 57.636 43.837 C 58.166 44.131,59.487 44.378,60.572 44.386 C 63.831 44.409,69.732 46.837,72.838 49.432 C 74.814 51.082,74.342 51.106,76.600 49.240 C 85.644 41.767,99.686 42.566,108.155 51.035 C 113.792 56.672,116.000 63.526,116.000 75.387 L 116.000 79.089 119.900 78.937 C 122.045 78.854,125.150 78.694,126.800 78.581 C 129.598 78.389,134.724 78.089,150.600 77.189 C 154.120 76.990,160.195 76.641,164.100 76.413 C 168.005 76.186,174.395 75.814,178.300 75.587 C 195.253 74.600,198.588 74.410,205.400 74.039 C 209.360 73.824,213.439 73.525,214.465 73.376 L 216.329 73.104 216.498 53.652 C 216.609 40.860,216.818 33.789,217.109 33.000 C 217.352 32.340,217.774 30.990,218.047 30.000 C 218.321 29.010,218.669 28.020,218.822 27.800 C 219.544 26.760,219.469 24.800,218.707 24.800 C 218.239 24.800,218.061 24.625,218.238 24.338 C 218.396 24.082,218.350 23.984,218.133 24.118 C 217.918 24.250,217.240 24.098,216.626 23.780 C 216.011 23.461,215.259 23.200,214.954 23.200 C 214.649 23.200,214.400 23.020,214.400 22.800 C 214.400 22.580,214.135 22.400,213.812 22.400 C 213.489 22.400,212.583 22.040,211.800 21.600 C 211.017 21.160,210.032 20.800,209.611 20.800 C 209.191 20.800,208.736 20.620,208.600 20.400 C 208.464 20.180,208.003 20.000,207.576 20.000 C 207.149 20.000,206.800 19.820,206.800 19.600 C 206.800 19.380,206.528 19.200,206.195 19.200 C 205.862 19.200,205.277 19.038,204.895 18.839 C 204.513 18.640,203.390 18.243,202.400 17.956 C 201.410 17.669,200.468 17.246,200.306 17.017 C 200.126 16.761,200.008 16.832,200.000 17.200 C 199.993 17.555,199.868 17.636,199.694 17.398 C 199.325 16.893,196.806 16.000,195.752 16.000 C 195.316 16.000,194.786 15.826,194.573 15.613 C 194.361 15.401,193.605 15.183,192.893 15.128 C 192.182 15.074,191.600 14.888,191.600 14.715 C 191.600 14.542,191.071 14.400,190.424 14.400 C 189.777 14.400,189.136 14.220,189.000 14.000 C 188.864 13.780,187.943 13.600,186.953 13.600 C 185.963 13.600,185.253 13.437,185.376 13.239 C 185.499 13.040,184.655 12.767,183.500 12.632 C 182.345 12.497,180.500 12.283,179.400 12.156 C 178.300 12.030,177.229 11.763,177.020 11.563 C 176.811 11.363,175.517 11.200,174.144 11.200 C 172.771 11.200,171.545 11.035,171.420 10.833 C 171.296 10.631,169.378 10.451,167.159 10.433 C 164.940 10.416,162.917 10.266,162.663 10.100 C 162.051 9.703,142.516 9.646,142.113 10.041 M270.600 24.400 C 271.459 25.280,272.252 26.000,272.362 26.000 C 272.472 26.000,271.859 25.280,271.000 24.400 C 270.141 23.520,269.348 22.800,269.238 22.800 C 269.128 22.800,269.741 23.520,270.600 24.400 M341.700 30.676 C 342.085 30.776,342.715 30.776,343.100 30.676 C 343.485 30.575,343.170 30.493,342.400 30.493 C 341.630 30.493,341.315 30.575,341.700 30.676 M365.724 41.000 C 365.726 42.320,365.801 42.812,365.890 42.093 C 365.979 41.374,365.977 40.294,365.886 39.693 C 365.795 39.092,365.722 39.680,365.724 41.000 M277.714 41.000 C 277.717 42.100,277.795 42.503,277.887 41.895 C 277.979 41.286,277.977 40.386,277.882 39.895 C 277.787 39.403,277.711 39.900,277.714 41.000 M243.701 41.000 C 243.705 41.880,243.787 42.193,243.883 41.695 C 243.979 41.198,243.975 40.478,243.875 40.095 C 243.775 39.713,243.696 40.120,243.701 41.000 M352.501 41.000 C 352.505 41.880,352.587 42.193,352.683 41.695 C 352.779 41.198,352.775 40.478,352.675 40.095 C 352.575 39.713,352.496 40.120,352.501 41.000 M334.000 47.325 C 334.000 47.394,334.585 47.979,335.300 48.625 L 336.600 49.800 335.425 48.500 C 334.330 47.288,334.000 47.016,334.000 47.325 M349.375 48.500 L 348.200 49.800 349.500 48.625 C 350.215 47.979,350.800 47.394,350.800 47.325 C 350.800 47.016,350.470 47.288,349.375 48.500 M253.505 51.483 C 254.002 51.579,254.722 51.575,255.105 51.475 C 255.487 51.375,255.080 51.296,254.200 51.301 C 253.320 51.305,253.007 51.387,253.505 51.483 M341.500 51.482 C 341.995 51.578,342.805 51.578,343.300 51.482 C 343.795 51.387,343.390 51.309,342.400 51.309 C 341.410 51.309,341.005 51.387,341.500 51.482 M270.800 57.400 C 269.828 58.390,269.123 59.200,269.233 59.200 C 269.343 59.200,270.228 58.390,271.200 57.400 C 272.172 56.410,272.877 55.600,272.767 55.600 C 272.657 55.600,271.772 56.410,270.800 57.400 M237.400 57.600 C 238.259 58.480,239.052 59.200,239.162 59.200 C 239.272 59.200,238.659 58.480,237.800 57.600 C 236.941 56.720,236.148 56.000,236.038 56.000 C 235.928 56.000,236.541 56.720,237.400 57.600 M253.107 64.690 C 253.826 64.779,254.906 64.777,255.507 64.686 C 256.108 64.595,255.520 64.522,254.200 64.524 C 252.880 64.526,252.388 64.601,253.107 64.690 M341.107 64.690 C 341.826 64.779,342.906 64.777,343.507 64.686 C 344.108 64.595,343.520 64.522,342.200 64.524 C 340.880 64.526,340.388 64.601,341.107 64.690 M32.400 67.639 C 32.070 68.118,31.395 68.927,30.900 69.437 C 30.405 69.947,30.000 70.562,30.000 70.805 C 30.000 71.048,29.820 71.136,29.600 71.000 C 29.380 70.864,29.200 71.123,29.200 71.576 C 29.200 72.029,29.042 72.400,28.849 72.400 C 28.655 72.400,28.270 72.947,27.993 73.616 C 27.716 74.285,27.183 75.050,26.808 75.316 C 26.029 75.870,25.019 77.600,25.475 77.600 C 25.642 77.600,25.378 77.880,24.889 78.223 C 24.400 78.565,24.000 79.083,24.000 79.374 C 24.000 79.664,23.732 80.124,23.404 80.396 C 23.077 80.668,22.907 81.050,23.028 81.245 C 23.149 81.440,23.099 81.600,22.918 81.600 C 22.737 81.600,22.144 82.320,21.600 83.200 C 21.056 84.080,20.463 84.800,20.282 84.800 C 20.101 84.800,20.055 84.965,20.180 85.168 C 20.305 85.370,20.136 85.807,19.804 86.139 C 19.472 86.471,19.200 87.026,19.200 87.371 C 19.200 87.717,19.020 88.000,18.800 88.000 C 18.580 88.000,18.400 88.197,18.400 88.438 C 18.400 88.679,18.029 89.398,17.575 90.035 C 17.122 90.671,16.725 91.542,16.692 91.969 C 16.660 92.395,16.491 92.656,16.317 92.549 C 16.143 92.441,16.000 92.618,16.000 92.943 C 16.000 93.268,15.865 93.593,15.700 93.667 C 15.310 93.840,13.597 97.260,13.599 97.862 C 13.600 98.338,11.980 101.644,11.570 102.000 C 11.444 102.110,11.106 103.055,10.818 104.100 C 10.531 105.145,10.129 106.000,9.924 106.000 C 9.720 106.000,9.662 106.176,9.795 106.392 C 9.928 106.607,9.811 107.192,9.535 107.692 C 9.258 108.191,9.078 108.825,9.134 109.100 C 9.189 109.375,9.047 109.600,8.818 109.600 C 8.588 109.600,8.400 110.140,8.400 110.800 C 8.400 111.460,8.220 112.000,8.000 112.000 C 7.780 112.000,7.600 112.540,7.600 113.200 C 7.600 113.860,7.420 114.400,7.200 114.400 C 6.980 114.400,6.800 114.940,6.800 115.600 C 6.800 116.260,6.620 116.800,6.400 116.800 C 6.180 116.800,6.000 117.340,6.000 118.000 C 6.000 118.660,5.820 119.200,5.600 119.200 C 5.380 119.200,5.200 119.920,5.200 120.800 C 5.200 121.680,5.040 122.400,4.844 122.400 C 4.648 122.400,4.391 122.985,4.273 123.700 C 4.154 124.415,3.849 125.810,3.593 126.800 C 3.338 127.790,3.036 129.364,2.924 130.299 C 2.812 131.233,2.589 131.917,2.430 131.819 C 2.271 131.720,2.099 132.562,2.048 133.689 C 1.996 134.816,1.784 136.055,1.577 136.443 C 1.370 136.830,1.200 138.023,1.200 139.094 C 1.200 140.164,0.975 141.265,0.700 141.540 C -0.113 142.353,-0.017 183.610,0.800 184.615 C 1.333 185.272,1.333 185.314,0.800 185.000 C 0.318 184.716,0.290 184.759,0.657 185.223 C 1.085 185.763,1.280 186.836,1.852 191.800 C 1.979 192.900,2.234 193.987,2.420 194.215 C 2.606 194.444,2.802 195.389,2.857 196.315 C 2.912 197.242,3.101 198.000,3.278 198.000 C 3.455 198.000,3.600 198.720,3.600 199.600 C 3.600 200.480,3.780 201.200,4.000 201.200 C 4.220 201.200,4.400 201.729,4.400 202.376 C 4.400 203.023,4.580 203.664,4.800 203.800 C 5.020 203.936,5.200 204.667,5.200 205.424 C 5.200 206.181,5.380 206.800,5.600 206.800 C 5.820 206.800,6.000 207.340,6.000 208.000 C 6.000 208.660,6.180 209.200,6.400 209.200 C 6.620 209.200,6.800 209.740,6.800 210.400 C 6.800 211.060,6.980 211.600,7.200 211.600 C 7.420 211.600,7.603 212.275,7.606 213.100 C 7.611 214.216,7.712 214.446,8.000 214.000 C 8.295 213.543,8.389 213.705,8.394 214.676 C 8.397 215.378,8.572 216.059,8.783 216.189 C 8.993 216.319,9.071 216.672,8.955 216.972 C 8.840 217.273,8.938 217.638,9.173 217.783 C 9.408 217.928,9.600 218.356,9.600 218.734 C 9.600 219.111,10.134 220.496,10.787 221.810 C 11.441 223.125,11.981 224.420,11.987 224.688 C 11.994 224.956,12.360 225.817,12.800 226.600 C 13.240 227.383,13.600 228.274,13.600 228.579 C 13.600 228.884,13.735 229.193,13.900 229.267 C 14.332 229.459,16.000 232.772,16.000 233.438 C 16.000 233.747,16.135 234.001,16.300 234.003 C 16.621 234.006,17.600 235.912,17.600 236.533 C 17.600 236.738,17.916 237.197,18.303 237.553 C 18.689 237.909,19.274 238.740,19.603 239.400 C 19.931 240.060,20.695 241.346,21.300 242.258 C 21.905 243.170,22.400 244.075,22.400 244.270 C 22.400 244.464,22.760 244.883,23.200 245.200 C 23.640 245.517,24.000 246.097,24.000 246.488 C 24.000 246.880,24.180 247.200,24.400 247.200 C 24.620 247.200,24.800 247.436,24.800 247.725 C 24.800 248.013,25.115 248.598,25.500 249.025 C 26.519 250.153,28.400 253.115,28.400 253.591 C 28.400 253.816,28.580 254.000,28.800 254.000 C 29.020 254.000,29.200 254.199,29.200 254.442 C 29.200 254.686,29.659 255.246,30.221 255.688 C 30.783 256.130,31.165 256.568,31.071 256.663 C 30.977 256.757,31.507 257.459,32.250 258.224 C 32.992 258.989,33.600 259.771,33.600 259.963 C 33.600 260.155,34.590 261.318,35.800 262.547 C 37.010 263.777,38.000 264.929,38.000 265.108 C 38.000 265.626,40.710 268.357,40.967 268.099 C 41.095 267.971,41.200 268.065,41.200 268.308 C 41.200 268.815,46.585 274.399,47.075 274.401 C 47.254 274.402,47.755 274.932,48.189 275.580 C 48.663 276.287,49.085 276.586,49.246 276.326 C 49.404 276.071,49.623 276.242,49.783 276.747 C 49.932 277.216,50.223 277.600,50.429 277.600 C 50.636 277.600,51.912 278.680,53.265 280.000 C 54.618 281.320,55.879 282.400,56.066 282.400 C 56.254 282.400,56.972 282.940,57.663 283.600 C 58.354 284.260,59.173 284.800,59.483 284.800 C 59.793 284.800,59.936 284.980,59.800 285.200 C 59.664 285.420,59.844 285.600,60.200 285.600 C 60.556 285.600,60.749 285.759,60.629 285.954 C 60.509 286.148,60.935 286.524,61.576 286.790 C 62.217 287.056,63.053 287.617,63.433 288.037 C 63.813 288.456,64.366 288.800,64.662 288.800 C 64.958 288.800,65.200 288.950,65.200 289.132 C 65.200 289.315,65.695 289.720,66.300 290.032 C 66.905 290.345,67.638 290.825,67.929 291.100 C 68.219 291.375,68.738 291.600,69.082 291.600 C 69.425 291.600,69.997 291.916,70.353 292.303 C 70.709 292.689,71.495 293.260,72.100 293.570 C 72.705 293.881,73.200 294.285,73.200 294.468 C 73.200 294.650,73.560 294.800,74.000 294.800 C 74.440 294.800,74.800 294.980,74.800 295.200 C 74.800 295.420,75.070 295.600,75.400 295.600 C 75.730 295.600,76.000 295.780,76.000 296.000 C 76.000 296.220,76.270 296.400,76.600 296.400 C 76.930 296.400,77.200 296.580,77.200 296.800 C 77.200 297.020,77.470 297.200,77.800 297.200 C 78.130 297.200,78.400 297.380,78.400 297.600 C 78.400 297.820,78.850 298.000,79.400 298.000 C 79.950 298.000,80.400 298.146,80.400 298.325 C 80.400 298.504,81.030 298.898,81.800 299.200 C 82.570 299.502,83.200 299.896,83.200 300.075 C 83.200 300.254,83.434 300.400,83.720 300.400 C 84.456 300.400,86.393 301.341,86.397 301.700 C 86.399 301.865,86.760 302.000,87.200 302.000 C 87.640 302.000,88.000 302.180,88.000 302.400 C 88.000 302.620,88.551 302.800,89.224 302.800 C 89.937 302.800,90.344 302.967,90.200 303.200 C 90.064 303.420,90.313 303.600,90.753 303.600 C 91.193 303.600,91.649 303.755,91.766 303.945 C 91.883 304.135,92.794 304.518,93.790 304.797 C 94.785 305.076,95.600 305.461,95.600 305.652 C 95.600 305.843,96.050 306.000,96.600 306.000 C 97.150 306.000,97.600 306.160,97.600 306.355 C 97.600 306.550,98.185 306.819,98.900 306.952 C 100.794 307.307,101.146 307.412,101.455 307.722 C 101.608 307.875,102.143 308.000,102.643 308.000 C 103.143 308.000,103.664 308.180,103.800 308.400 C 103.936 308.620,104.476 308.800,105.000 308.800 C 105.524 308.800,106.064 308.980,106.200 309.200 C 106.336 309.420,107.067 309.600,107.824 309.600 C 108.581 309.600,109.200 309.780,109.200 310.000 C 109.200 310.220,109.639 310.400,110.176 310.400 C 110.713 310.400,111.264 310.580,111.400 310.800 C 111.536 311.020,112.267 311.200,113.024 311.200 C 113.781 311.200,114.400 311.346,114.400 311.525 C 114.400 311.704,115.255 311.894,116.300 311.947 C 117.345 312.000,118.260 312.213,118.333 312.421 C 118.407 312.630,119.136 312.800,119.953 312.800 C 120.771 312.800,121.611 312.963,121.820 313.161 C 122.197 313.520,124.092 313.829,128.500 314.251 C 129.765 314.372,130.800 314.609,130.800 314.777 C 130.800 314.945,132.181 315.120,133.869 315.164 C 135.557 315.209,137.255 315.415,137.643 315.623 C 138.530 316.097,167.600 316.130,167.600 315.656 C 167.600 315.467,169.085 315.278,170.900 315.235 C 172.715 315.193,174.260 314.987,174.333 314.779 C 174.407 314.571,174.873 314.400,175.369 314.400 C 176.309 314.400,176.867 313.191,177.402 310.000 C 177.756 307.880,178.558 303.535,179.560 298.300 C 179.802 297.035,180.169 295.055,180.375 293.900 C 181.199 289.293,183.210 278.472,183.628 276.400 C 184.100 274.063,184.594 271.464,185.188 268.200 C 185.822 264.715,186.454 261.452,186.813 259.800 C 187.005 258.920,187.268 257.570,187.399 256.800 C 187.754 254.704,188.315 251.669,188.805 249.200 C 189.044 247.990,189.332 246.280,189.443 245.400 C 189.554 244.520,189.805 243.440,190.000 243.000 C 190.195 242.560,190.459 241.390,190.587 240.400 C 191.159 235.965,191.266 235.354,191.600 234.600 C 191.795 234.160,192.055 233.035,192.177 232.100 C 192.300 231.165,192.500 229.635,192.623 228.700 C 192.745 227.765,193.005 226.640,193.200 226.200 C 193.395 225.760,193.644 224.680,193.754 223.800 C 193.864 222.920,194.158 221.120,194.409 219.800 C 195.257 215.326,195.625 213.405,195.979 211.600 C 196.173 210.610,196.515 208.720,196.739 207.400 C 196.963 206.080,197.697 202.120,198.371 198.600 C 199.045 195.080,199.598 191.905,199.598 191.544 C 199.600 190.808,198.556 190.684,186.600 189.998 C 182.860 189.784,176.740 189.433,173.000 189.218 C 169.260 189.004,162.960 188.635,159.000 188.400 C 155.040 188.165,148.830 187.811,145.200 187.614 C 141.570 187.418,135.450 187.070,131.600 186.842 C 127.750 186.614,121.180 186.244,117.000 186.021 C 112.820 185.797,104.720 185.344,99.000 185.013 C 93.280 184.683,86.710 184.313,84.400 184.191 C 68.426 183.349,64.199 182.607,57.600 179.483 C 51.879 176.774,46.006 172.074,42.583 167.462 C 41.578 166.108,40.540 164.727,40.278 164.394 C 40.015 164.061,39.530 163.251,39.201 162.594 C 38.871 161.937,38.511 161.310,38.400 161.200 C 38.194 160.995,37.797 160.169,36.599 157.451 C 35.485 154.924,34.748 152.319,33.925 148.000 C 33.662 146.620,33.412 131.062,33.253 106.283 C 33.027 70.987,32.936 66.860,32.400 67.639 M214.051 193.853 C 213.777 195.144,213.389 197.100,213.189 198.200 C 212.990 199.300,212.720 200.740,212.589 201.400 C 212.020 204.267,211.543 206.738,211.200 208.600 C 210.997 209.700,210.635 211.590,210.395 212.800 C 210.156 214.010,209.868 215.720,209.757 216.600 C 209.646 217.480,209.395 218.560,209.200 219.000 C 209.005 219.440,208.745 220.565,208.623 221.500 C 208.500 222.435,208.300 223.965,208.177 224.900 C 208.055 225.835,207.795 226.960,207.600 227.400 C 207.266 228.154,207.159 228.765,206.587 233.200 C 206.459 234.190,206.195 235.360,206.000 235.800 C 205.805 236.240,205.554 237.320,205.443 238.200 C 205.332 239.080,205.069 240.700,204.858 241.800 C 204.648 242.900,204.358 244.520,204.215 245.400 C 204.071 246.280,203.796 247.720,203.603 248.600 C 203.411 249.480,203.048 251.370,202.796 252.800 C 202.545 254.230,202.181 256.210,201.988 257.200 C 201.794 258.190,201.344 260.620,200.987 262.600 C 200.629 264.580,199.989 268.000,199.564 270.200 C 199.139 272.400,198.601 275.280,198.369 276.600 C 198.137 277.920,197.787 279.720,197.592 280.600 C 197.398 281.480,197.133 282.830,197.004 283.600 C 196.875 284.370,196.611 285.810,196.417 286.800 C 196.223 287.790,195.862 289.680,195.616 291.000 C 195.370 292.320,194.989 294.300,194.769 295.400 C 194.549 296.500,194.203 298.300,194.000 299.400 C 193.797 300.500,193.437 302.390,193.200 303.600 C 192.963 304.810,192.603 306.700,192.400 307.800 C 192.197 308.900,191.837 310.790,191.600 312.000 C 191.363 313.210,191.003 315.100,190.800 316.200 C 190.597 317.300,190.237 319.190,190.000 320.400 C 189.763 321.610,189.403 323.500,189.200 324.600 C 188.997 325.700,188.660 327.500,188.450 328.600 C 188.240 329.700,187.873 331.680,187.635 333.000 C 187.396 334.320,187.031 336.300,186.824 337.400 C 186.616 338.500,185.616 343.810,184.601 349.200 C 183.586 354.590,182.568 359.990,182.338 361.200 C 182.108 362.410,181.776 364.210,181.600 365.200 C 181.424 366.190,181.064 368.080,180.800 369.400 C 180.117 372.813,178.968 378.938,178.567 381.300 L 178.312 382.800 224.556 382.800 L 270.800 382.800 270.800 288.850 L 270.800 194.901 266.100 194.637 C 260.227 194.308,250.075 193.722,241.200 193.200 C 237.460 192.980,231.385 192.628,227.700 192.418 C 224.015 192.208,219.549 191.917,217.775 191.771 L 214.550 191.506 214.051 193.853 " stroke="none" fill="#dcbc6c" fill-rule="evenodd"></path><path id="path2" d="M251.200 3.200 C 251.200 3.429,250.000 3.600,248.400 3.600 C 246.800 3.600,245.600 3.771,245.600 4.000 C 245.600 4.220,244.880 4.400,244.000 4.400 C 243.120 4.400,242.400 4.580,242.400 4.800 C 242.400 5.020,241.950 5.200,241.400 5.200 C 240.850 5.200,240.400 5.380,240.400 5.600 C 240.400 5.820,240.040 6.000,239.600 6.000 C 239.160 6.000,238.800 6.180,238.800 6.400 C 238.800 6.620,238.384 6.800,237.875 6.800 C 237.367 6.800,236.564 7.160,236.092 7.600 C 235.620 8.040,235.037 8.400,234.797 8.400 C 234.083 8.400,231.849 9.662,231.153 10.459 C 230.797 10.867,230.346 11.200,230.151 11.200 C 229.392 11.200,224.800 16.042,224.800 16.843 C 224.800 17.083,224.260 17.783,223.600 18.400 C 222.940 19.017,222.400 19.726,222.400 19.977 C 222.400 20.228,222.040 20.820,221.600 21.292 C 221.160 21.764,220.800 22.387,220.800 22.675 C 220.800 22.964,220.620 23.200,220.400 23.200 C 220.180 23.200,220.000 23.897,220.000 24.748 C 220.000 25.599,219.621 27.444,219.159 28.848 C 217.317 34.437,217.201 35.999,217.200 55.286 C 217.200 72.295,217.151 73.597,216.500 73.936 C 216.115 74.137,213.100 74.417,209.800 74.558 C 203.812 74.815,196.654 75.204,183.800 75.971 C 180.060 76.194,173.760 76.562,169.800 76.788 C 161.811 77.245,152.482 77.783,142.200 78.379 C 138.460 78.596,131.980 78.958,127.800 79.184 C 123.620 79.409,119.355 79.700,118.323 79.831 C 114.679 80.292,114.800 80.550,114.800 72.319 C 114.800 68.279,114.604 64.367,114.356 63.446 C 109.674 46.086,90.241 39.055,76.906 49.897 C 74.376 51.954,74.816 51.950,72.288 49.937 C 68.589 46.991,64.653 45.469,59.012 44.803 C 57.479 44.622,56.168 44.304,56.099 44.097 C 55.700 42.899,49.201 44.560,45.130 46.900 C 43.316 47.943,38.801 52.061,38.799 52.674 C 38.799 52.853,38.259 53.630,37.600 54.400 C 36.941 55.170,36.401 56.025,36.401 56.300 C 36.400 56.575,36.220 56.800,36.000 56.800 C 35.780 56.800,35.600 57.072,35.600 57.405 C 35.600 57.738,35.420 58.368,35.200 58.805 C 34.980 59.242,34.620 59.958,34.400 60.395 C 34.180 60.832,34.000 61.732,34.000 62.395 C 34.000 63.058,33.820 63.600,33.600 63.600 C 32.923 63.600,33.122 66.684,33.817 66.951 C 34.367 67.162,34.429 71.473,34.397 106.894 C 34.365 141.517,34.440 146.972,34.986 149.505 C 36.091 154.626,37.229 157.608,40.043 162.749 C 42.212 166.712,49.492 174.250,52.868 176.029 C 53.381 176.299,53.890 176.636,54.000 176.778 C 56.293 179.737,67.443 182.468,80.200 183.195 C 84.380 183.433,90.770 183.803,94.400 184.017 C 98.030 184.231,105.950 184.679,112.000 185.012 C 118.050 185.345,127.680 185.894,133.400 186.231 C 139.120 186.568,146.860 187.017,150.600 187.229 C 158.321 187.667,168.251 188.234,178.200 188.807 C 181.940 189.023,188.313 189.371,192.362 189.582 C 196.412 189.792,199.894 190.134,200.100 190.340 C 200.542 190.782,200.333 192.167,197.802 205.600 C 196.787 210.990,195.770 216.390,195.543 217.600 C 195.315 218.810,194.965 220.655,194.765 221.700 C 193.947 225.960,193.580 227.907,193.198 230.000 C 192.977 231.210,192.618 233.100,192.400 234.200 C 192.182 235.300,191.822 237.190,191.600 238.400 C 191.378 239.610,191.018 241.500,190.800 242.600 C 190.582 243.700,190.222 245.590,190.000 246.800 C 189.778 248.010,189.418 249.900,189.200 251.000 C 188.982 252.100,188.607 254.080,188.368 255.400 C 188.128 256.720,187.767 258.655,187.566 259.700 C 187.365 260.745,187.038 262.455,186.840 263.500 C 186.330 266.196,185.623 269.897,185.218 272.000 C 184.572 275.353,184.001 278.392,183.623 280.500 C 183.416 281.655,182.597 286.020,181.803 290.200 C 181.009 294.380,180.202 298.700,180.010 299.800 C 179.818 300.900,179.393 303.150,179.065 304.800 C 178.736 306.450,178.231 309.056,177.942 310.592 C 177.653 312.127,177.139 313.661,176.799 314.001 C 175.918 314.882,175.239 317.420,174.941 320.949 C 174.799 322.627,174.529 324.000,174.341 324.000 C 174.154 324.000,174.000 324.889,174.000 325.976 C 174.000 327.063,173.820 328.064,173.600 328.200 C 173.380 328.336,173.200 329.337,173.200 330.424 C 173.200 331.511,173.020 332.400,172.800 332.400 C 172.580 332.400,172.400 333.300,172.400 334.400 C 172.400 335.500,172.220 336.400,172.000 336.400 C 171.780 336.400,171.600 337.300,171.600 338.400 C 171.600 339.500,171.420 340.400,171.200 340.400 C 170.980 340.400,170.800 341.390,170.800 342.600 C 170.800 343.810,170.620 344.800,170.400 344.800 C 170.180 344.800,170.000 345.700,170.000 346.800 C 170.000 347.900,169.820 348.800,169.600 348.800 C 169.380 348.800,169.200 349.700,169.200 350.800 C 169.200 351.900,169.020 352.800,168.800 352.800 C 168.580 352.800,168.400 353.779,168.400 354.976 C 168.400 356.173,168.220 357.264,168.000 357.400 C 167.780 357.536,167.600 358.447,167.600 359.424 C 167.600 360.401,167.420 361.200,167.200 361.200 C 166.980 361.200,166.800 362.089,166.800 363.176 C 166.800 364.263,166.620 365.264,166.400 365.400 C 166.180 365.536,166.000 366.436,166.000 367.400 C 166.000 368.364,165.820 369.264,165.600 369.400 C 165.380 369.536,165.200 370.627,165.200 371.824 C 165.200 373.021,165.020 374.000,164.800 374.000 C 164.580 374.000,164.400 374.799,164.400 375.776 C 164.400 376.753,164.220 377.664,164.000 377.800 C 163.780 377.936,163.600 378.836,163.600 379.800 C 163.600 380.764,163.420 381.664,163.200 381.800 C 162.980 381.936,162.800 382.926,162.800 384.000 C 162.800 385.074,162.620 386.064,162.400 386.200 C 162.180 386.336,162.000 387.967,162.000 389.824 C 162.000 391.808,162.165 393.200,162.400 393.200 C 162.620 393.200,162.800 393.491,162.800 393.846 C 162.800 394.997,165.610 397.200,167.078 397.200 C 167.805 397.200,168.400 397.380,168.400 397.600 C 168.400 397.866,203.000 398.000,271.400 398.000 C 339.800 398.000,374.400 397.866,374.400 397.600 C 374.400 397.371,375.600 397.200,377.200 397.200 C 378.800 397.200,380.000 397.029,380.000 396.800 C 380.000 396.580,380.540 396.400,381.200 396.400 C 381.860 396.400,382.400 396.220,382.400 396.000 C 382.400 395.780,382.940 395.600,383.600 395.600 C 384.260 395.600,384.800 395.420,384.800 395.200 C 384.800 394.980,385.160 394.800,385.600 394.800 C 386.040 394.800,386.400 394.620,386.400 394.400 C 386.400 394.180,386.636 394.000,386.925 394.000 C 387.213 394.000,387.836 393.640,388.308 393.200 C 388.780 392.760,389.263 392.400,389.380 392.400 C 389.998 392.400,395.600 386.944,395.600 386.343 C 395.600 386.136,395.960 385.580,396.400 385.108 C 396.840 384.636,397.200 384.013,397.200 383.725 C 397.200 383.436,397.380 383.200,397.600 383.200 C 397.820 383.200,398.000 382.840,398.000 382.400 C 398.000 381.960,398.180 381.600,398.400 381.600 C 398.620 381.600,398.800 381.075,398.800 380.433 C 398.800 379.792,399.025 379.192,399.300 379.100 C 399.681 378.973,399.800 376.751,399.800 369.800 C 399.800 362.849,399.681 360.627,399.300 360.500 C 399.025 360.408,398.800 359.898,398.800 359.367 C 398.800 358.835,398.620 358.400,398.400 358.400 C 398.180 358.400,398.000 358.040,398.000 357.600 C 398.000 357.160,397.820 356.800,397.600 356.800 C 397.380 356.800,397.200 356.480,397.200 356.088 C 397.200 355.697,396.840 355.117,396.400 354.800 C 395.960 354.483,395.600 353.979,395.600 353.680 C 395.600 353.382,394.880 352.446,394.000 351.600 C 393.120 350.754,392.400 349.854,392.400 349.600 C 392.400 349.346,393.120 348.446,394.000 347.600 C 394.880 346.754,395.600 345.818,395.600 345.520 C 395.600 345.221,395.960 344.717,396.400 344.400 C 396.840 344.083,397.200 343.503,397.200 343.112 C 397.200 342.720,397.380 342.400,397.600 342.400 C 397.820 342.400,398.000 342.040,398.000 341.600 C 398.000 341.160,398.180 340.800,398.400 340.800 C 398.620 340.800,398.800 340.365,398.800 339.833 C 398.800 339.302,399.025 338.792,399.300 338.700 C 399.934 338.489,400.031 320.535,399.400 320.085 C 399.180 319.928,398.938 319.350,398.862 318.800 C 398.786 318.250,398.561 317.740,398.362 317.667 C 398.163 317.593,398.000 317.188,398.000 316.767 C 398.000 316.345,397.820 316.000,397.600 316.000 C 397.380 316.000,397.200 315.680,397.200 315.288 C 397.200 314.897,396.840 314.317,396.400 314.000 C 395.960 313.683,395.600 313.179,395.600 312.880 C 395.600 312.582,394.880 311.646,394.000 310.800 C 392.083 308.958,392.047 308.646,393.600 307.339 C 394.260 306.783,394.800 306.115,394.800 305.853 C 394.800 305.591,395.160 305.117,395.600 304.800 C 396.040 304.483,396.400 303.903,396.400 303.512 C 396.400 303.120,396.547 302.800,396.726 302.800 C 397.183 302.800,398.800 299.678,398.800 298.796 C 398.800 298.395,399.025 297.992,399.300 297.900 C 399.681 297.773,399.800 295.511,399.800 288.400 C 399.800 281.289,399.681 279.027,399.300 278.900 C 399.025 278.808,398.800 278.298,398.800 277.767 C 398.800 277.235,398.620 276.800,398.400 276.800 C 398.180 276.800,398.000 276.530,398.000 276.200 C 398.000 275.870,397.820 275.600,397.600 275.600 C 397.380 275.600,397.200 275.240,397.200 274.800 C 397.200 274.360,397.020 274.000,396.800 274.000 C 396.580 274.000,396.400 273.748,396.400 273.441 C 396.400 273.133,395.500 271.962,394.400 270.839 C 392.057 268.446,392.023 268.273,393.600 266.800 C 394.260 266.183,394.800 265.457,394.800 265.186 C 394.800 264.916,395.116 264.403,395.503 264.047 C 395.889 263.691,396.460 262.905,396.770 262.300 C 397.081 261.695,397.485 261.200,397.668 261.200 C 397.850 261.200,398.000 260.928,398.000 260.595 C 398.000 260.262,398.159 259.677,398.353 259.295 C 399.766 256.518,399.800 256.232,399.800 247.270 C 399.800 240.423,399.680 238.227,399.300 238.100 C 399.025 238.008,398.800 237.588,398.800 237.167 C 398.800 236.745,398.620 236.400,398.400 236.400 C 398.180 236.400,398.000 236.040,398.000 235.600 C 398.000 235.160,397.820 234.800,397.600 234.800 C 397.380 234.800,397.200 234.440,397.200 234.000 C 397.200 233.560,397.020 233.200,396.800 233.200 C 396.580 233.200,396.400 232.962,396.400 232.671 C 396.400 232.380,395.500 231.178,394.400 230.000 C 392.043 227.477,392.040 227.457,393.642 225.960 C 394.326 225.322,394.731 224.800,394.542 224.800 C 394.354 224.799,394.695 224.373,395.300 223.853 C 395.905 223.333,396.400 222.613,396.400 222.253 C 396.400 221.894,396.580 221.600,396.800 221.600 C 397.020 221.600,397.200 221.240,397.200 220.800 C 397.200 220.360,397.380 220.000,397.600 220.000 C 397.820 220.000,398.000 219.640,398.000 219.200 C 398.000 218.760,398.180 218.400,398.400 218.400 C 398.620 218.400,398.800 218.055,398.800 217.633 C 398.800 217.212,399.025 216.792,399.300 216.700 C 399.681 216.573,399.800 214.328,399.800 207.286 C 399.800 200.422,399.671 197.911,399.300 197.540 C 399.025 197.265,398.800 196.716,398.800 196.320 C 398.800 195.924,398.620 195.600,398.400 195.600 C 398.180 195.600,398.000 195.240,398.000 194.800 C 398.000 194.360,397.864 194.000,397.698 194.000 C 397.531 194.000,397.138 193.415,396.825 192.700 C 396.511 191.985,395.747 190.923,395.127 190.340 C 394.507 189.756,394.000 189.115,394.000 188.915 C 394.000 188.715,393.624 188.147,393.164 187.654 L 392.328 186.756 393.164 186.031 C 393.624 185.632,394.000 185.002,394.000 184.629 C 394.000 184.257,394.180 184.064,394.400 184.200 C 394.620 184.336,394.800 184.206,394.800 183.912 C 394.800 183.617,395.160 183.117,395.600 182.800 C 396.040 182.483,396.400 181.918,396.400 181.545 C 396.400 181.172,396.535 180.807,396.700 180.733 C 397.120 180.547,398.800 177.237,398.800 176.596 C 398.800 176.305,399.025 175.992,399.300 175.900 C 399.681 175.773,399.800 173.511,399.800 166.400 C 399.800 159.289,399.681 157.027,399.300 156.900 C 399.025 156.808,398.800 156.388,398.800 155.967 C 398.800 155.545,398.620 155.200,398.400 155.200 C 398.180 155.200,398.000 154.840,398.000 154.400 C 398.000 153.960,397.820 153.600,397.600 153.600 C 397.380 153.600,397.200 153.240,397.200 152.800 C 397.200 152.360,397.020 152.000,396.800 152.000 C 396.580 152.000,396.400 151.712,396.400 151.360 C 396.400 151.009,395.905 150.244,395.300 149.660 C 394.695 149.077,393.958 148.150,393.663 147.600 C 392.974 146.316,388.392 142.716,386.813 142.217 C 386.146 142.007,385.600 141.692,385.600 141.517 C 385.600 141.343,385.240 141.200,384.800 141.200 C 384.360 141.200,384.000 141.020,384.000 140.800 C 384.000 140.580,383.460 140.400,382.800 140.400 C 382.140 140.400,381.600 140.220,381.600 140.000 C 381.600 139.780,381.240 139.600,380.800 139.600 C 380.004 139.600,380.000 139.333,380.000 86.400 C 380.000 51.200,379.865 33.200,379.600 33.200 C 379.380 33.200,379.200 32.480,379.200 31.600 C 379.200 30.720,379.020 30.000,378.800 30.000 C 378.580 30.000,378.400 29.460,378.400 28.800 C 378.400 28.140,378.220 27.600,378.000 27.600 C 377.780 27.600,377.600 27.150,377.600 26.600 C 377.600 26.050,377.420 25.600,377.200 25.600 C 376.980 25.600,376.800 25.240,376.800 24.800 C 376.800 24.360,376.620 24.000,376.400 24.000 C 376.180 24.000,376.000 23.640,376.000 23.200 C 376.000 22.760,375.820 22.400,375.600 22.400 C 375.380 22.400,375.200 22.138,375.200 21.818 C 375.200 20.752,371.753 16.111,369.278 13.844 C 368.772 13.380,367.528 12.235,366.515 11.300 C 365.502 10.365,364.509 9.600,364.308 9.600 C 364.107 9.600,363.673 9.330,363.343 9.000 C 363.013 8.670,362.396 8.400,361.971 8.400 C 361.547 8.400,361.200 8.220,361.200 8.000 C 361.200 7.780,360.840 7.600,360.400 7.600 C 359.960 7.600,359.600 7.420,359.600 7.200 C 359.600 6.980,359.240 6.800,358.800 6.800 C 358.360 6.800,358.000 6.620,358.000 6.400 C 358.000 6.180,357.640 6.000,357.200 6.000 C 356.760 6.000,356.400 5.820,356.400 5.600 C 356.400 5.380,355.950 5.200,355.400 5.200 C 354.850 5.200,354.400 5.020,354.400 4.800 C 354.400 4.580,353.680 4.400,352.800 4.400 C 351.920 4.400,351.200 4.220,351.200 4.000 C 351.200 3.771,350.000 3.600,348.400 3.600 C 346.800 3.600,345.600 3.429,345.600 3.200 C 345.600 2.965,344.200 2.800,342.200 2.800 C 340.200 2.800,338.800 2.965,338.800 3.200 C 338.800 3.429,337.600 3.600,336.000 3.600 C 334.400 3.600,333.200 3.771,333.200 4.000 C 333.200 4.220,332.660 4.400,332.000 4.400 C 331.340 4.400,330.800 4.580,330.800 4.800 C 330.800 5.020,330.260 5.200,329.600 5.200 C 328.940 5.200,328.400 5.380,328.400 5.600 C 328.400 5.820,327.950 6.000,327.400 6.000 C 326.850 6.000,326.400 6.180,326.400 6.400 C 326.400 6.620,326.040 6.800,325.600 6.800 C 325.160 6.800,324.800 6.980,324.800 7.200 C 324.800 7.420,324.440 7.600,324.000 7.600 C 323.560 7.600,323.200 7.762,323.200 7.961 C 323.200 8.159,322.705 8.498,322.100 8.714 C 321.495 8.930,320.460 9.578,319.800 10.153 C 319.140 10.728,318.453 11.199,318.273 11.200 C 317.765 11.200,312.000 17.223,312.000 17.753 C 312.000 18.012,311.640 18.483,311.200 18.800 C 310.760 19.117,310.400 19.697,310.400 20.088 C 310.400 20.480,310.253 20.800,310.074 20.800 C 309.676 20.800,308.400 23.401,308.400 24.214 C 308.400 24.536,308.220 24.800,308.000 24.800 C 307.780 24.800,307.600 25.149,307.600 25.576 C 307.600 26.003,307.420 26.464,307.200 26.600 C 306.980 26.736,306.800 27.197,306.800 27.624 C 306.800 28.051,306.620 28.400,306.400 28.400 C 306.180 28.400,306.000 29.120,306.000 30.000 C 306.000 30.880,305.820 31.600,305.600 31.600 C 305.380 31.600,305.200 32.500,305.200 33.600 C 305.200 34.700,305.020 35.600,304.800 35.600 C 304.540 35.600,304.400 41.143,304.400 51.429 C 304.400 70.328,305.146 68.400,297.829 68.400 L 292.400 68.400 292.400 53.424 C 292.400 45.187,292.247 38.353,292.060 38.237 C 291.872 38.121,291.619 36.355,291.497 34.313 C 291.375 32.271,291.056 30.060,290.788 29.400 C 290.520 28.740,290.158 27.840,289.984 27.400 C 288.902 24.666,288.572 24.000,288.302 24.000 C 288.136 24.000,288.000 23.640,288.000 23.200 C 288.000 22.760,287.820 22.400,287.600 22.400 C 287.380 22.400,287.200 22.040,287.200 21.600 C 287.200 21.160,287.050 20.800,286.868 20.800 C 286.685 20.800,286.281 20.305,285.970 19.700 C 285.660 19.095,285.126 18.330,284.784 18.000 C 284.442 17.670,283.725 16.770,283.190 16.000 C 281.962 14.232,280.968 13.238,279.200 12.010 C 278.430 11.475,277.530 10.757,277.200 10.413 C 276.870 10.070,275.880 9.431,275.000 8.994 C 274.120 8.558,273.340 8.065,273.267 7.900 C 273.193 7.735,272.788 7.600,272.367 7.600 C 271.945 7.600,271.600 7.420,271.600 7.200 C 271.600 6.980,271.240 6.800,270.800 6.800 C 270.360 6.800,270.000 6.620,270.000 6.400 C 270.000 6.180,269.640 6.000,269.200 6.000 C 268.760 6.000,268.400 5.820,268.400 5.600 C 268.400 5.380,267.860 5.200,267.200 5.200 C 266.540 5.200,266.000 5.020,266.000 4.800 C 266.000 4.580,265.280 4.400,264.400 4.400 C 263.520 4.400,262.800 4.220,262.800 4.000 C 262.800 3.775,261.675 3.600,260.224 3.600 C 258.807 3.600,257.536 3.420,257.400 3.200 C 257.264 2.980,255.813 2.800,254.176 2.800 C 252.459 2.800,251.200 2.969,251.200 3.200 M258.870 17.415 C 266.605 19.042,273.940 24.988,276.367 31.600 C 276.649 32.370,277.019 33.360,277.187 33.800 C 278.405 36.984,278.766 42.312,277.968 45.354 C 276.736 50.053,276.587 50.434,274.738 53.615 C 273.594 55.581,270.881 58.564,268.523 60.449 C 265.077 63.202,259.019 65.204,254.200 65.184 C 245.439 65.146,236.825 59.890,232.894 52.183 C 223.778 34.315,239.455 13.331,258.870 17.415 M346.227 17.218 C 348.933 17.694,352.500 18.992,354.062 20.068 C 354.646 20.471,355.306 20.800,355.529 20.800 C 356.634 20.800,362.263 27.169,363.678 30.021 C 370.255 43.274,363.965 59.043,350.200 63.810 C 330.357 70.681,311.538 49.761,320.505 30.800 C 325.012 21.271,336.073 15.431,346.227 17.218 M253.000 31.516 C 245.405 32.251,241.929 41.877,247.140 47.741 C 250.720 51.770,258.047 51.549,261.610 47.305 C 267.370 40.445,262.024 30.643,253.000 31.516 M340.800 31.614 C 330.462 32.922,330.009 48.116,340.240 50.409 C 349.393 52.460,355.745 41.660,349.541 34.594 C 347.357 32.106,344.529 31.142,340.800 31.614 M62.238 59.001 C 65.648 60.669,67.904 64.210,67.971 68.000 C 68.132 77.045,81.162 76.535,81.209 67.481 C 81.262 57.161,95.767 54.400,100.550 63.800 L 101.771 66.200 101.986 77.600 C 102.213 89.710,102.274 90.089,104.282 91.829 C 105.292 92.705,108.919 93.821,109.529 93.444 C 109.727 93.321,113.559 93.028,118.045 92.791 C 126.327 92.354,133.325 91.961,146.100 91.215 C 150.005 90.987,156.305 90.624,160.100 90.409 C 163.895 90.194,170.060 89.836,173.800 89.613 C 177.540 89.391,184.020 89.028,188.200 88.806 C 192.380 88.585,197.060 88.310,198.600 88.195 C 200.140 88.080,206.260 87.720,212.200 87.394 C 230.243 86.404,230.400 86.302,230.400 75.551 C 230.400 69.346,230.363 69.404,233.099 71.357 C 245.491 80.204,262.507 80.238,275.328 71.442 C 278.214 69.462,278.386 69.645,278.394 74.720 C 278.406 82.342,280.109 83.381,291.605 82.783 C 318.818 81.365,318.400 81.518,318.400 72.974 C 318.400 69.679,318.645 69.607,322.091 71.894 C 325.511 74.163,329.189 75.850,332.600 76.714 C 336.953 77.816,338.324 78.000,342.175 78.000 C 346.739 78.000,351.466 77.228,354.700 75.954 C 358.450 74.478,360.367 73.490,363.278 71.532 C 364.531 70.689,365.746 70.000,365.978 70.000 C 366.271 70.000,366.400 81.868,366.400 108.846 L 366.400 147.691 367.285 149.265 C 368.498 151.425,370.047 152.259,373.800 152.774 C 390.994 155.132,390.728 178.518,373.488 180.227 C 363.434 181.223,364.318 193.561,374.446 193.606 C 379.060 193.627,384.320 197.965,385.935 203.082 C 388.576 211.451,383.443 219.187,374.200 220.768 C 372.660 221.031,371.016 221.325,370.547 221.419 C 368.443 221.845,366.400 224.908,366.400 227.639 C 366.400 231.260,368.697 233.355,373.427 234.048 C 391.128 236.645,391.131 259.230,373.430 261.589 C 363.828 262.869,364.053 274.731,373.681 274.789 C 379.274 274.822,384.647 279.356,386.258 285.400 C 388.418 293.509,381.322 302.400,372.688 302.400 C 363.467 302.400,364.698 314.718,374.005 315.574 C 390.614 317.101,390.715 340.319,374.124 342.802 C 369.740 343.458,368.859 343.879,367.546 345.949 C 364.618 350.566,367.215 355.312,373.050 356.011 C 387.918 357.791,391.923 375.668,378.892 382.083 L 376.217 383.400 330.409 383.400 L 284.600 383.400 284.400 284.529 L 284.200 185.659 283.375 184.554 C 281.294 181.766,280.123 181.505,266.600 180.812 C 261.980 180.576,252.080 180.029,244.600 179.596 C 237.120 179.164,227.760 178.624,223.800 178.398 C 219.840 178.171,213.450 177.803,209.600 177.579 C 205.750 177.356,199.540 176.996,195.800 176.780 C 177.803 175.738,174.545 175.549,168.400 175.186 C 164.770 174.972,158.650 174.620,154.800 174.404 C 150.950 174.187,144.650 173.825,140.800 173.599 C 136.950 173.373,130.740 173.013,127.000 172.800 C 123.260 172.587,117.050 172.227,113.200 172.000 C 105.788 171.564,96.977 171.059,85.800 170.429 C 69.668 169.521,67.080 169.070,62.000 166.280 C 54.938 162.400,48.526 153.647,47.878 147.000 C 47.800 146.202,48.101 146.199,151.400 146.000 C 268.491 145.774,256.948 146.137,259.014 142.613 C 261.038 139.159,259.916 135.395,256.316 133.557 C 254.871 132.820,252.102 132.800,151.224 132.800 L 47.615 132.800 47.391 131.900 C 47.267 131.405,47.219 116.330,47.283 98.400 L 47.400 65.800 48.634 63.600 C 51.641 58.240,56.988 56.432,62.238 59.001 M233.200 191.999 C 244.485 192.665,253.118 193.155,260.600 193.554 C 264.560 193.765,268.565 194.065,269.500 194.220 L 271.200 194.502 271.200 289.051 L 271.200 383.600 224.355 383.600 L 177.509 383.600 177.769 381.700 C 177.912 380.655,178.203 378.945,178.415 377.900 C 178.627 376.855,178.963 375.145,179.162 374.100 C 179.360 373.055,179.729 371.120,179.981 369.800 C 181.026 364.318,181.519 361.713,182.364 357.200 C 182.591 355.990,182.951 354.100,183.165 353.000 C 183.379 351.900,183.934 348.930,184.399 346.400 C 185.661 339.523,187.165 331.497,188.035 327.000 C 188.461 324.800,188.999 321.920,189.231 320.600 C 189.463 319.280,189.807 317.480,189.994 316.600 C 190.327 315.038,190.805 312.547,191.587 308.300 C 191.799 307.145,192.080 305.660,192.211 305.000 C 192.525 303.419,193.032 300.760,193.584 297.800 C 193.830 296.480,194.190 294.590,194.384 293.600 C 194.578 292.610,194.938 290.720,195.184 289.400 C 195.430 288.080,195.789 286.190,195.981 285.200 C 196.174 284.210,196.528 282.320,196.768 281.000 C 197.007 279.680,197.382 277.700,197.600 276.600 C 197.818 275.500,198.177 273.610,198.398 272.400 C 198.619 271.190,198.969 269.300,199.176 268.200 C 199.384 267.100,200.362 261.880,201.349 256.600 C 202.337 251.320,203.429 245.560,203.774 243.800 C 204.120 242.040,204.595 239.520,204.828 238.200 C 205.062 236.880,205.411 235.080,205.603 234.200 C 205.796 233.320,206.069 231.880,206.211 231.000 C 206.354 230.120,206.634 228.590,206.835 227.600 C 207.036 226.610,207.387 224.810,207.616 223.600 C 207.844 222.390,208.190 220.590,208.384 219.600 C 208.578 218.610,208.938 216.720,209.184 215.400 C 209.430 214.080,209.789 212.190,209.981 211.200 C 210.174 210.210,210.528 208.320,210.768 207.000 C 211.007 205.680,211.382 203.700,211.600 202.600 C 211.991 200.628,212.438 198.217,213.175 194.101 C 213.382 192.947,213.677 191.799,213.831 191.550 C 214.124 191.076,219.787 191.207,233.200 191.999 " stroke="none" fill="#4c241c" fill-rule="evenodd"></path><path id="path3" d="M251.000 17.824 C 250.560 17.926,249.247 18.218,248.081 18.473 C 246.916 18.728,245.870 19.086,245.758 19.268 C 245.645 19.451,245.305 19.600,245.003 19.600 C 242.506 19.600,235.571 26.123,233.419 30.494 C 221.751 54.207,251.967 76.077,270.622 57.422 C 283.154 44.891,277.906 23.813,260.955 18.593 C 258.979 17.984,252.475 17.482,251.000 17.824 M338.400 17.965 C 333.310 18.842,327.130 22.395,324.462 25.980 C 323.880 26.761,323.314 27.490,323.202 27.600 C 322.999 27.801,322.514 28.633,321.244 30.955 C 314.623 43.063,321.398 58.079,336.000 63.659 C 337.915 64.391,346.912 64.384,348.800 63.650 C 360.067 59.267,365.600 51.808,365.600 41.000 C 365.600 26.474,352.654 15.510,338.400 17.965 M256.200 30.828 C 264.519 33.029,267.428 42.535,261.562 48.350 C 252.052 57.779,237.644 44.023,246.600 34.066 C 249.111 31.274,252.968 29.973,256.200 30.828 M344.943 30.998 C 350.131 32.572,352.641 36.001,352.556 41.400 C 352.377 52.799,337.036 55.303,332.639 44.651 C 329.530 37.119,337.171 28.640,344.943 30.998 " stroke="none" fill="#fafafa" fill-rule="evenodd"></path><path id="path4" d="M249.600 17.386 C 244.408 18.576,240.824 20.524,237.286 24.081 C 235.138 26.241,231.987 30.834,232.011 31.773 C 232.017 32.008,232.597 31.120,233.300 29.800 C 237.307 22.283,245.113 17.742,255.200 17.061 C 256.360 16.983,256.076 16.929,254.400 16.911 C 252.970 16.895,250.810 17.109,249.600 17.386 M341.100 17.089 C 341.815 17.178,342.985 17.178,343.700 17.089 C 344.415 17.001,343.830 16.928,342.400 16.928 C 340.970 16.928,340.385 17.001,341.100 17.089 M259.924 17.998 C 264.486 19.216,267.395 20.957,271.154 24.719 C 272.999 26.565,274.081 27.476,273.559 26.743 C 270.273 22.127,263.934 18.139,258.800 17.456 C 257.533 17.288,257.866 17.448,259.924 17.998 M337.400 17.383 C 337.180 17.449,336.190 17.743,335.200 18.037 C 321.650 22.056,314.532 37.947,320.436 51.000 C 322.347 55.226,329.603 62.930,330.668 61.865 C 330.782 61.752,330.363 61.394,329.737 61.070 C 326.617 59.453,322.095 54.162,320.620 50.400 C 314.929 35.893,322.857 20.970,338.000 17.686 C 339.021 17.465,339.367 17.289,338.800 17.280 C 338.250 17.271,337.620 17.317,337.400 17.383 M346.600 17.623 C 349.337 18.307,350.928 18.859,353.000 19.841 C 354.207 20.413,354.615 20.513,354.030 20.094 C 352.476 18.983,348.933 17.663,346.888 17.434 L 345.000 17.222 346.600 17.623 M356.200 21.788 C 356.860 22.329,357.549 22.778,357.731 22.786 C 357.913 22.794,357.527 22.350,356.873 21.800 C 356.219 21.250,355.530 20.801,355.342 20.802 C 355.154 20.803,355.540 21.247,356.200 21.788 M219.646 25.485 C 219.621 25.972,219.226 27.370,218.769 28.591 C 218.312 29.813,218.012 31.035,218.103 31.306 C 218.349 32.037,220.093 26.137,219.877 25.308 C 219.734 24.757,219.683 24.796,219.646 25.485 M361.758 27.500 C 367.992 36.230,367.271 48.318,359.996 57.007 C 358.350 58.974,358.354 58.971,360.366 56.821 C 367.565 49.127,368.360 36.822,362.259 27.504 C 361.574 26.457,360.875 25.600,360.707 25.600 C 360.539 25.600,361.012 26.455,361.758 27.500 M275.516 30.730 C 276.112 32.027,276.654 32.951,276.720 32.783 C 276.871 32.402,275.228 28.865,274.769 28.581 C 274.583 28.466,274.919 29.433,275.516 30.730 M252.400 31.202 C 248.931 31.915,243.729 36.263,244.920 37.454 C 245.036 37.570,245.438 37.019,245.813 36.229 C 248.308 30.971,256.129 29.878,261.095 34.093 C 262.461 35.252,262.508 35.267,261.600 34.247 C 259.398 31.773,255.652 30.534,252.400 31.202 M340.400 31.202 C 336.760 31.950,332.780 35.515,332.810 38.000 C 332.814 38.330,333.148 37.880,333.552 37.000 C 338.624 25.942,356.083 33.331,351.395 44.551 C 351.062 45.348,350.879 46.000,350.989 46.000 C 351.524 46.000,352.400 42.861,352.400 40.947 C 352.400 34.751,346.489 29.950,340.400 31.202 M217.473 32.953 C 217.323 33.345,217.218 34.236,217.240 34.933 C 217.279 36.167,217.290 36.159,217.649 34.627 C 218.045 32.937,217.924 31.779,217.473 32.953 M231.400 33.200 C 231.250 33.673,231.217 34.150,231.327 34.260 C 231.437 34.370,231.650 34.073,231.800 33.600 C 231.950 33.127,231.983 32.650,231.873 32.540 C 231.763 32.430,231.550 32.727,231.400 33.200 M277.040 34.666 C 277.408 36.199,277.600 36.344,277.600 35.090 C 277.600 34.517,277.413 33.932,277.184 33.790 C 276.911 33.621,276.862 33.923,277.040 34.666 M230.676 35.610 C 230.530 36.155,230.427 37.050,230.446 37.600 C 230.471 38.318,230.584 38.157,230.849 37.027 C 231.255 35.295,231.100 34.025,230.676 35.610 M263.114 37.254 C 263.472 38.164,263.828 38.716,263.906 38.481 C 264.044 38.069,262.943 35.600,262.622 35.600 C 262.535 35.600,262.757 36.344,263.114 37.254 M277.800 41.000 C 277.800 43.514,277.922 45.262,278.072 44.885 C 278.221 44.508,278.344 42.760,278.344 41.000 C 278.344 39.240,278.221 37.492,278.072 37.115 C 277.922 36.738,277.800 38.486,277.800 41.000 M216.860 38.400 C 216.788 39.390,216.759 47.605,216.797 56.656 C 216.845 68.346,216.736 73.192,216.421 73.387 C 216.177 73.538,212.877 73.828,209.089 74.031 C 202.292 74.395,194.302 74.847,181.000 75.618 C 177.260 75.835,171.140 76.187,167.400 76.400 C 163.660 76.613,157.450 76.974,153.600 77.201 C 144.602 77.733,135.392 78.262,125.600 78.810 C 121.310 79.050,117.350 79.281,116.800 79.323 L 115.800 79.400 115.541 72.200 C 115.210 63.003,114.045 58.839,110.447 54.000 C 108.036 50.758,101.969 46.000,100.245 46.000 C 99.964 46.000,99.605 45.871,99.447 45.714 C 98.277 44.544,88.910 43.941,86.028 44.851 C 82.321 46.021,79.236 47.516,77.021 49.214 L 74.597 51.071 72.179 49.215 C 69.969 47.518,66.881 46.022,63.172 44.851 C 62.386 44.603,60.676 44.429,59.372 44.464 C 58.005 44.501,57.593 44.586,58.400 44.664 C 63.702 45.181,68.696 47.077,72.288 49.937 C 74.816 51.950,74.376 51.954,76.906 49.897 C 90.241 39.055,109.674 46.086,114.356 63.446 C 114.604 64.367,114.800 68.279,114.800 72.319 C 114.800 80.550,114.679 80.292,118.323 79.831 C 119.355 79.700,123.620 79.409,127.800 79.184 C 131.980 78.958,138.460 78.596,142.200 78.379 C 151.482 77.841,161.202 77.280,169.800 76.787 C 173.760 76.560,179.970 76.200,183.600 75.988 C 187.230 75.775,193.530 75.407,197.600 75.169 C 201.670 74.931,207.557 74.616,210.681 74.468 C 213.806 74.321,216.553 74.009,216.786 73.776 C 217.073 73.487,217.174 67.488,217.100 54.976 C 217.040 44.869,216.932 37.410,216.860 38.400 M244.280 39.700 C 244.154 40.635,244.201 42.030,244.385 42.800 C 244.660 43.957,244.725 43.661,244.759 41.100 C 244.805 37.651,244.626 37.129,244.280 39.700 M332.335 39.900 C 332.250 40.505,332.298 41.540,332.443 42.200 C 332.643 43.117,332.716 42.858,332.753 41.100 C 332.803 38.664,332.595 38.065,332.335 39.900 M263.400 44.000 C 263.250 44.473,263.217 44.950,263.327 45.060 C 263.437 45.170,263.650 44.873,263.800 44.400 C 263.950 43.927,263.983 43.450,263.873 43.340 C 263.763 43.230,263.550 43.527,263.400 44.000 M332.800 44.043 C 332.800 45.584,337.119 50.614,337.831 49.902 C 337.933 49.800,337.315 49.253,336.457 48.685 C 335.464 48.028,334.517 46.889,333.849 45.548 C 333.272 44.390,332.800 43.713,332.800 44.043 M230.468 44.800 C 230.462 45.350,230.611 46.160,230.800 46.600 L 231.144 47.400 231.132 46.600 C 231.126 46.160,230.976 45.350,230.800 44.800 L 230.480 43.800 230.468 44.800 M244.800 44.716 C 244.800 46.461,250.000 50.838,251.978 50.759 C 252.902 50.722,252.879 50.689,251.743 50.418 C 249.259 49.826,245.600 46.769,245.600 45.286 C 245.600 45.045,245.420 44.736,245.200 44.600 C 244.980 44.464,244.800 44.516,244.800 44.716 M261.675 47.210 C 260.290 48.878,258.625 49.933,256.600 50.426 C 255.624 50.664,255.571 50.726,256.316 50.759 C 258.112 50.839,261.750 48.362,262.847 46.313 C 263.426 45.231,263.131 45.456,261.675 47.210 M277.246 46.726 C 277.221 47.236,276.580 48.995,275.821 50.637 C 274.380 53.755,274.435 54.519,275.884 51.522 C 277.222 48.757,277.684 47.314,277.482 46.532 C 277.333 45.957,277.283 45.999,277.246 46.726 M349.375 47.637 C 346.963 50.175,342.948 51.235,339.400 50.270 C 338.452 50.012,338.302 50.047,338.684 50.436 C 340.440 52.222,347.800 50.424,349.904 47.695 C 351.168 46.056,350.904 46.027,349.375 47.637 M231.212 48.000 C 231.212 48.330,231.387 48.870,231.600 49.200 C 231.945 49.733,231.988 49.733,231.988 49.200 C 231.988 48.870,231.813 48.330,231.600 48.000 C 231.255 47.467,231.212 47.467,231.212 48.000 M232.011 50.116 C 232.005 50.290,232.383 51.183,232.852 52.102 C 238.233 62.649,250.978 67.732,262.200 63.807 C 263.814 63.242,268.000 60.999,268.000 60.699 C 268.000 60.529,267.325 60.810,266.500 61.323 C 255.299 68.291,239.564 63.967,233.299 52.200 C 232.596 50.880,232.017 49.942,232.011 50.116 M270.800 57.885 C 268.333 60.429,268.381 60.614,270.931 58.400 C 271.973 57.495,273.839 55.197,273.527 55.202 C 273.457 55.203,272.230 56.410,270.800 57.885 M55.120 58.096 C 52.812 58.775,50.004 61.158,48.634 63.600 L 47.400 65.800 47.283 98.400 C 47.219 116.330,47.267 131.405,47.391 131.900 L 47.615 132.800 151.224 132.800 C 252.102 132.800,254.871 132.820,256.316 133.557 C 259.916 135.395,261.038 139.159,259.014 142.613 C 256.948 146.137,268.491 145.774,151.400 146.000 C 48.101 146.199,47.800 146.202,47.878 147.000 C 48.526 153.647,54.938 162.400,62.000 166.280 C 67.080 169.070,69.668 169.521,85.800 170.429 C 96.977 171.059,105.788 171.564,113.200 172.000 C 117.050 172.227,123.260 172.587,127.000 172.800 C 130.740 173.013,136.950 173.373,140.800 173.599 C 144.650 173.825,150.950 174.187,154.800 174.404 C 158.650 174.620,164.770 174.972,168.400 175.186 C 174.545 175.549,177.803 175.738,195.800 176.780 C 199.540 176.996,205.750 177.356,209.600 177.579 C 213.450 177.803,219.840 178.171,223.800 178.398 C 227.760 178.624,237.120 179.164,244.600 179.596 C 252.080 180.029,261.980 180.576,266.600 180.812 C 280.123 181.505,281.294 181.766,283.375 184.554 L 284.200 185.659 284.400 284.529 L 284.600 383.400 330.409 383.400 L 376.217 383.400 378.892 382.083 C 391.923 375.668,387.918 357.791,373.050 356.011 C 367.215 355.312,364.618 350.566,367.546 345.949 C 368.859 343.879,369.740 343.458,374.124 342.802 C 390.715 340.319,390.614 317.101,374.005 315.574 C 364.698 314.718,363.467 302.400,372.688 302.400 C 381.322 302.400,388.418 293.509,386.258 285.400 C 384.647 279.356,379.274 274.822,373.681 274.789 C 364.053 274.731,363.828 262.869,373.430 261.589 C 391.131 259.230,391.128 236.645,373.427 234.048 C 368.697 233.355,366.400 231.260,366.400 227.639 C 366.400 224.908,368.443 221.845,370.547 221.419 C 371.016 221.325,372.660 221.031,374.200 220.768 C 383.443 219.187,388.576 211.451,385.935 203.082 C 384.320 197.965,379.060 193.627,374.446 193.606 C 364.318 193.561,363.434 181.223,373.488 180.227 C 390.728 178.518,390.994 155.132,373.800 152.774 C 370.047 152.259,368.498 151.425,367.285 149.265 L 366.400 147.691 366.400 108.846 C 366.400 81.868,366.271 70.000,365.978 70.000 C 365.746 70.000,364.531 70.689,363.278 71.532 C 360.367 73.490,358.450 74.478,354.700 75.954 C 351.466 77.228,346.739 78.000,342.175 78.000 C 338.324 78.000,336.953 77.816,332.600 76.714 C 329.189 75.850,325.511 74.163,322.091 71.894 C 318.645 69.607,318.400 69.679,318.400 72.974 C 318.400 77.789,316.729 80.689,313.563 81.367 C 311.121 81.890,284.590 83.257,283.205 82.931 C 279.850 82.142,278.402 79.671,278.394 74.720 C 278.386 69.645,278.214 69.462,275.328 71.442 C 262.507 80.238,245.491 80.204,233.099 71.357 C 230.363 69.404,230.400 69.346,230.400 75.551 C 230.400 86.302,230.243 86.404,212.200 87.394 C 206.260 87.720,200.140 88.080,198.600 88.195 C 197.060 88.310,192.380 88.585,188.200 88.806 C 184.020 89.028,177.540 89.391,173.800 89.613 C 170.060 89.836,163.895 90.194,160.100 90.409 C 156.305 90.624,150.005 90.987,146.100 91.215 C 133.325 91.961,126.327 92.354,118.045 92.791 C 113.559 93.028,109.727 93.321,109.529 93.444 C 108.919 93.821,105.292 92.705,104.282 91.829 C 102.274 90.089,102.213 89.710,101.986 77.600 L 101.771 66.200 100.550 63.800 C 95.767 54.400,81.262 57.161,81.209 67.481 C 81.162 76.535,68.132 77.045,67.971 68.000 C 67.856 61.513,61.127 56.327,55.120 58.096 M62.292 59.638 C 65.271 61.283,66.885 63.926,67.399 68.000 C 68.127 73.777,73.216 76.859,77.899 74.359 C 79.739 73.377,81.600 70.731,81.600 69.097 C 81.600 58.184,95.155 54.361,100.029 63.900 C 100.972 65.746,101.006 66.123,101.208 77.200 C 101.426 89.208,101.529 89.893,103.395 91.759 C 105.333 93.696,106.937 94.099,111.600 93.819 C 116.758 93.509,126.240 92.955,135.800 92.404 C 139.760 92.176,145.970 91.818,149.600 91.607 C 153.230 91.397,159.440 91.043,163.400 90.821 C 167.360 90.598,173.660 90.229,177.400 90.000 C 181.140 89.771,187.350 89.407,191.200 89.191 C 195.050 88.975,201.215 88.618,204.900 88.399 C 208.585 88.179,214.525 87.841,218.100 87.646 C 229.609 87.020,230.800 85.934,230.800 76.069 L 230.800 70.261 231.700 71.091 C 232.748 72.058,235.288 73.549,238.400 75.026 C 239.610 75.600,240.913 76.234,241.295 76.435 C 241.677 76.636,242.264 76.800,242.600 76.800 C 242.936 76.800,243.523 76.961,243.905 77.157 C 247.335 78.922,261.065 78.922,264.495 77.157 C 264.877 76.961,265.464 76.800,265.800 76.800 C 266.136 76.800,266.723 76.641,267.105 76.446 C 267.487 76.252,269.060 75.496,270.600 74.768 C 272.140 74.039,273.460 73.298,273.533 73.121 C 273.607 72.945,273.877 72.800,274.133 72.800 C 274.390 72.799,275.118 72.353,275.752 71.808 C 277.342 70.440,277.452 70.631,277.704 75.201 C 278.180 83.831,279.019 84.124,300.000 82.998 C 317.340 82.066,318.800 81.366,318.800 73.977 C 318.800 70.236,318.667 70.284,322.308 72.705 C 326.063 75.201,329.756 76.726,335.060 77.970 C 337.672 78.583,347.376 78.600,349.665 77.995 C 353.618 76.951,354.677 76.623,356.200 75.969 C 357.080 75.591,358.385 75.039,359.100 74.743 C 359.815 74.447,360.400 74.069,360.400 73.902 C 360.400 73.736,360.587 73.600,360.816 73.600 C 361.044 73.600,362.169 72.968,363.316 72.196 L 365.400 70.793 365.600 109.296 C 365.792 146.297,365.830 147.861,366.571 149.354 C 367.692 151.612,370.371 153.200,373.059 153.200 C 377.794 153.200,382.845 156.576,384.926 161.130 C 388.554 169.072,382.151 179.600,373.692 179.600 C 369.955 179.600,366.908 181.827,365.992 185.228 C 364.833 189.533,368.555 194.000,373.301 194.000 C 382.431 194.000,388.745 204.493,384.666 212.886 C 382.922 216.474,378.266 220.000,375.271 220.000 C 367.029 220.000,362.770 227.264,367.965 232.460 C 369.539 234.033,369.628 234.066,374.535 234.834 C 385.597 236.567,389.798 249.281,381.934 257.228 C 380.861 258.313,379.717 259.200,379.392 259.200 C 379.066 259.200,378.800 259.336,378.800 259.503 C 378.800 259.966,375.798 260.799,374.106 260.806 C 367.495 260.832,363.681 267.078,367.094 272.287 C 368.082 273.796,370.837 275.200,372.807 275.200 C 389.623 275.200,390.337 299.308,373.589 301.601 C 363.068 303.042,362.929 314.850,373.419 316.027 C 387.270 317.580,390.724 334.750,378.462 341.100 C 377.506 341.595,376.191 342.000,375.539 342.000 C 370.764 342.000,366.977 344.310,365.994 347.823 C 364.898 351.736,368.150 356.400,371.974 356.400 C 386.305 356.400,391.348 375.516,378.620 381.591 L 376.086 382.800 330.643 382.800 L 285.200 382.800 285.191 284.900 C 285.183 190.784,285.154 186.938,284.448 185.383 C 283.641 183.606,281.625 181.697,280.269 181.426 C 278.224 181.016,274.960 180.728,268.200 180.361 C 259.684 179.899,252.553 179.491,226.800 177.994 C 223.170 177.783,216.960 177.423,213.000 177.193 C 209.040 176.962,202.920 176.605,199.400 176.399 C 195.880 176.192,189.670 175.833,185.600 175.600 C 181.530 175.367,175.320 175.004,171.800 174.793 C 168.280 174.581,162.250 174.230,158.400 174.012 C 154.550 173.795,148.295 173.433,144.500 173.208 C 140.705 172.984,134.585 172.626,130.900 172.414 C 127.215 172.202,121.050 171.845,117.200 171.621 C 113.350 171.397,107.050 171.031,103.200 170.807 C 90.756 170.083,83.100 169.650,78.400 169.401 C 61.945 168.532,51.035 160.640,48.640 147.872 L 48.364 146.400 151.827 146.400 L 255.291 146.400 256.839 145.530 C 262.488 142.355,261.339 134.173,255.000 132.442 C 253.862 132.131,223.721 132.004,150.700 132.002 L 48.000 132.000 48.000 99.471 C 48.000 62.917,47.870 64.595,50.948 61.453 C 54.058 58.278,58.534 57.562,62.292 59.638 M356.427 60.167 C 355.972 60.716,351.986 62.791,350.200 63.410 C 344.961 65.224,338.923 65.148,333.808 63.203 C 333.254 62.992,332.800 62.910,332.800 63.020 C 332.800 64.524,343.001 65.664,347.200 64.629 C 351.601 63.544,357.839 60.506,357.128 59.794 C 357.010 59.677,356.695 59.845,356.427 60.167 M33.506 105.291 C 33.564 126.461,33.761 144.596,33.942 145.591 C 34.125 146.591,34.256 129.432,34.236 107.233 C 34.212 80.844,34.063 67.021,33.800 66.933 C 33.535 66.845,33.436 79.761,33.506 105.291 M34.448 148.480 C 34.205 153.937,39.815 164.744,46.148 171.024 C 51.685 176.514,61.712 182.165,65.566 181.968 C 65.915 181.950,64.860 181.498,63.222 180.964 C 60.400 180.043,54.431 177.334,54.000 176.778 C 53.890 176.636,53.381 176.299,52.868 176.029 C 50.766 174.921,46.277 170.817,43.400 167.372 C 39.198 162.339,36.481 156.539,34.887 149.200 C 34.603 147.893,34.483 147.696,34.448 148.480 M67.000 182.400 C 67.440 182.589,68.520 182.735,69.400 182.725 C 70.929 182.706,70.947 182.692,69.800 182.400 C 68.021 181.947,65.947 181.947,67.000 182.400 M73.200 183.217 C 74.410 183.384,77.110 183.510,79.200 183.498 L 83.000 183.474 80.200 183.187 C 76.090 182.765,70.117 182.791,73.200 183.217 M86.400 184.014 C 87.830 184.175,90.890 184.300,93.200 184.291 L 97.400 184.276 94.000 183.978 C 92.130 183.814,89.070 183.689,87.200 183.701 L 83.800 183.722 86.400 184.014 M97.654 184.587 C 97.757 184.690,101.612 184.973,106.221 185.216 C 119.178 185.900,127.186 186.346,134.600 186.796 C 138.340 187.024,144.460 187.385,148.200 187.599 C 151.940 187.813,158.150 188.174,162.000 188.401 C 171.590 188.967,180.740 189.481,190.000 189.971 C 199.285 190.464,199.896 190.570,200.121 191.726 C 200.264 192.459,200.300 192.427,200.346 191.524 C 200.422 190.005,200.405 190.001,192.305 189.579 C 188.287 189.370,181.940 189.023,178.200 188.807 C 168.758 188.264,158.624 187.684,150.600 187.229 C 146.860 187.016,138.940 186.558,133.000 186.209 C 127.060 185.860,117.689 185.311,112.176 184.988 C 101.879 184.384,97.325 184.258,97.654 184.587 M213.831 191.550 C 213.677 191.799,213.382 192.947,213.175 194.101 C 212.438 198.217,211.991 200.628,211.600 202.600 C 211.382 203.700,211.007 205.680,210.768 207.000 C 210.528 208.320,210.174 210.210,209.981 211.200 C 209.789 212.190,209.430 214.080,209.184 215.400 C 208.938 216.720,208.578 218.610,208.384 219.600 C 208.190 220.590,207.844 222.390,207.616 223.600 C 207.387 224.810,207.036 226.610,206.835 227.600 C 206.634 228.590,206.354 230.120,206.211 231.000 C 206.069 231.880,205.796 233.320,205.603 234.200 C 205.411 235.080,205.062 236.880,204.828 238.200 C 204.595 239.520,204.120 242.040,203.774 243.800 C 202.139 252.122,199.523 266.366,199.368 267.800 C 199.104 270.235,199.793 268.053,200.378 264.600 C 200.639 263.060,201.012 260.990,201.207 260.000 C 201.533 258.344,201.913 256.365,202.819 251.600 C 203.008 250.610,203.368 248.720,203.619 247.400 C 203.871 246.080,204.231 244.190,204.419 243.200 C 205.197 239.113,205.698 236.490,206.064 234.600 C 206.778 230.912,207.132 229.016,207.594 226.400 C 207.847 224.970,208.209 223.080,208.400 222.200 C 208.591 221.320,208.937 219.520,209.169 218.200 C 209.401 216.880,209.939 214.000,210.365 211.800 C 211.423 206.329,213.068 197.579,213.665 194.246 L 214.158 191.491 219.179 191.739 C 221.941 191.875,227.260 192.166,231.000 192.385 C 244.280 193.166,251.494 193.578,258.800 193.977 C 262.870 194.198,267.235 194.492,268.500 194.629 L 270.800 194.879 270.800 289.039 L 270.800 383.200 224.624 383.200 C 199.227 383.200,178.361 383.060,178.255 382.889 C 178.149 382.718,178.590 379.793,179.235 376.389 C 179.879 372.985,180.344 369.930,180.269 369.600 C 180.193 369.270,180.000 369.720,179.839 370.600 C 179.515 372.373,179.000 375.012,178.415 377.900 C 178.203 378.945,177.912 380.655,177.769 381.700 L 177.509 383.600 224.355 383.600 L 271.200 383.600 271.200 289.051 L 271.200 194.502 269.500 194.220 C 268.565 194.065,264.560 193.765,260.600 193.554 C 253.118 193.155,244.485 192.665,233.200 191.999 C 219.787 191.207,214.124 191.076,213.831 191.550 M199.497 193.600 C 199.340 194.150,199.225 195.140,199.242 195.800 L 199.272 197.000 199.658 195.658 C 199.871 194.920,199.986 193.930,199.914 193.458 C 199.792 192.654,199.766 192.663,199.497 193.600 M198.625 198.600 C 198.472 199.480,198.188 201.010,197.993 202.000 C 197.667 203.656,197.286 205.641,196.381 210.400 C 196.192 211.390,195.832 213.280,195.581 214.600 C 194.141 222.151,193.558 225.235,193.200 227.200 C 193.020 228.190,192.665 230.080,192.412 231.400 C 192.159 232.720,191.783 234.700,191.577 235.800 C 191.243 237.584,190.316 242.453,189.216 248.200 C 189.005 249.300,188.012 254.610,187.008 260.000 C 186.004 265.390,185.006 270.555,184.791 271.477 C 184.368 273.291,184.270 275.063,184.612 274.721 C 184.729 274.605,184.999 273.495,185.212 272.255 C 185.425 271.015,185.798 268.965,186.040 267.700 C 186.282 266.435,186.648 264.500,186.853 263.400 C 187.058 262.300,187.384 260.590,187.579 259.600 C 187.773 258.610,188.128 256.720,188.368 255.400 C 188.607 254.080,188.982 252.100,189.200 251.000 C 189.418 249.900,189.778 248.010,190.000 246.800 C 190.222 245.590,190.582 243.700,190.800 242.600 C 191.018 241.500,191.378 239.610,191.600 238.400 C 191.822 237.190,192.182 235.300,192.400 234.200 C 192.618 233.100,192.977 231.210,193.198 230.000 C 193.419 228.790,193.771 226.900,193.982 225.800 C 194.331 223.976,194.617 222.466,195.611 217.200 C 198.509 201.838,199.210 197.836,199.069 197.454 C 198.978 197.204,198.778 197.720,198.625 198.600 M198.697 270.400 C 198.540 270.950,198.425 271.940,198.442 272.600 L 198.472 273.800 198.858 272.458 C 199.071 271.720,199.186 270.730,199.114 270.258 C 198.992 269.454,198.966 269.463,198.697 270.400 M197.831 275.400 C 197.681 276.280,197.399 277.720,197.203 278.600 C 197.007 279.480,196.729 280.920,196.585 281.800 C 196.442 282.680,196.167 284.210,195.975 285.200 C 195.333 288.508,194.154 294.718,193.582 297.800 C 193.055 300.638,192.541 303.336,192.211 305.000 C 191.983 306.151,191.628 308.038,190.744 312.800 C 190.519 314.010,190.182 315.720,189.994 316.600 C 189.807 317.480,189.463 319.280,189.231 320.600 C 188.999 321.920,188.461 324.800,188.035 327.000 C 187.610 329.200,186.790 333.520,186.214 336.600 C 185.638 339.680,184.815 344.026,184.384 346.258 C 183.953 348.490,183.600 350.635,183.600 351.025 C 183.600 352.365,184.025 351.305,184.430 348.955 C 184.653 347.660,185.007 345.700,185.218 344.600 C 185.429 343.500,185.781 341.610,186.002 340.400 C 186.223 339.190,186.582 337.300,186.800 336.200 C 187.018 335.100,187.378 333.210,187.600 332.000 C 187.822 330.790,188.182 328.900,188.400 327.800 C 188.618 326.700,188.978 324.810,189.200 323.600 C 189.422 322.390,189.782 320.500,190.000 319.400 C 190.218 318.300,190.577 316.410,190.798 315.200 C 191.019 313.990,191.372 312.100,191.584 311.000 C 192.179 307.906,192.691 305.207,193.139 302.800 C 193.364 301.590,194.649 294.778,195.995 287.663 C 197.341 280.548,198.366 274.518,198.272 274.263 C 198.179 274.008,197.980 274.520,197.831 275.400 M183.782 276.982 C 183.629 278.002,183.602 278.935,183.722 279.055 C 183.842 279.175,184.065 278.439,184.218 277.418 C 184.371 276.398,184.398 275.465,184.278 275.345 C 184.158 275.225,183.935 275.961,183.782 276.982 M183.027 281.000 C 182.876 281.880,182.577 283.500,182.364 284.600 C 182.151 285.700,181.791 287.590,181.564 288.800 C 180.719 293.313,180.226 295.918,179.181 301.400 C 178.160 306.754,177.939 307.872,177.577 309.506 C 177.370 310.444,177.200 311.648,177.200 312.182 C 177.200 312.716,177.020 313.264,176.800 313.400 C 176.580 313.536,176.406 313.862,176.413 314.124 C 176.447 315.406,177.499 312.951,177.952 310.533 C 178.233 309.030,178.795 306.090,179.201 304.000 C 179.607 301.910,180.393 297.770,180.948 294.800 C 181.503 291.830,182.344 287.382,182.817 284.915 C 183.290 282.448,183.592 280.198,183.490 279.915 C 183.387 279.632,183.179 280.120,183.027 281.000 M182.982 353.782 C 182.829 354.802,182.802 355.735,182.922 355.855 C 183.042 355.975,183.265 355.239,183.418 354.218 C 183.571 353.198,183.598 352.265,183.478 352.145 C 183.358 352.025,183.135 352.761,182.982 353.782 M182.297 357.200 C 182.140 357.750,182.025 358.740,182.042 359.400 L 182.072 360.600 182.458 359.258 C 182.671 358.520,182.786 357.530,182.714 357.058 C 182.592 356.254,182.566 356.263,182.297 357.200 M181.405 362.259 C 181.270 363.107,180.972 364.539,180.744 365.441 C 180.516 366.344,180.395 367.514,180.477 368.041 C 180.558 368.569,180.953 367.234,181.354 365.075 C 181.755 362.916,181.986 361.053,181.867 360.934 C 181.749 360.815,181.541 361.412,181.405 362.259 " stroke="none" fill="#877c44" fill-rule="evenodd"></path></g></svg>